<svg width="1137" height="165" viewBox="0 0 1137 165" fill="none" xmlns="http://www.w3.org/2000/svg">
<path d="M320.664 82.9922V92.625C320.664 96.6562 320.758 100.008 320.945 102.68C321.227 104.508 323.336 105.961 327.273 107.039C328.68 107.32 329.641 107.695 330.156 108.164C330.812 108.445 331.141 109.266 331.141 110.625C331.141 111.609 330.953 112.289 330.578 112.664C330.203 113.227 329.477 113.508 328.398 113.508H293.102C292.258 113.508 291.508 113.32 290.852 112.945C290.43 112.57 290.219 111.797 290.219 110.625C290.219 109.594 290.523 108.773 291.133 108.164C291.695 107.695 293.125 107.18 295.422 106.617C297.625 106.008 299.078 105 299.781 103.594C300.344 102.234 300.625 98.5781 300.625 92.625V48.6797C299.969 52.4297 297.273 56.0391 292.539 59.5078C291.977 59.8828 290.828 60.75 289.094 62.1094C284.594 65.25 281.383 67.5 279.461 68.8594C275.805 72.4219 273.508 76.3125 272.57 80.5312C271.117 85.5469 270.391 90.1172 270.391 94.2422C270.391 96.1641 270.484 97.9688 270.672 99.6562C270.672 100.922 270.859 101.742 271.234 102.117C271.234 103.664 271.727 104.719 272.711 105.281C273.367 105.656 274.516 106.102 276.156 106.617L277.281 106.898C278.922 107.18 280.117 107.602 280.867 108.164C281.477 108.445 281.781 109.266 281.781 110.625C281.781 111.797 281.57 112.57 281.148 112.945C280.68 113.32 279.977 113.508 279.039 113.508H250.914C247.867 113.508 245.477 113.508 243.742 113.508C242.477 113.508 241.703 113.32 241.422 112.945C241.141 112.383 241 111.609 241 110.625C241 109.594 241.281 108.773 241.844 108.164C242.547 107.602 243.648 107.18 245.148 106.898C245.852 106.805 246.719 106.664 247.75 106.477C248.219 106.383 248.664 106.289 249.086 106.195C250.023 106.195 250.539 105.656 250.633 104.578C250.633 98.625 251.359 92.5781 252.812 86.4375C254.453 79.7344 257.055 74.4609 260.617 70.6172C263.57 67.1484 269.312 63.1172 277.844 58.5234C285.906 54.4922 291.297 51.1172 294.016 48.3984C294.391 48.0234 294.812 47.5547 295.281 46.9922C297.484 44.6953 298.727 43.2891 299.008 42.7734C299.805 41.9297 300.344 40.875 300.625 39.6094V33C300.625 28.7812 300.297 25.9453 299.641 24.4922C298.656 22.7578 297.156 21.7031 295.141 21.3281C292.938 20.6719 291.555 20.2031 290.992 19.9219C290.477 19.8281 290.219 19.1484 290.219 17.8828C290.219 15.9609 291.18 15 293.102 15C296.477 15 299.5 15.0469 302.172 15.1406C304.891 15.2344 307.867 15.2812 311.102 15.2812C314.664 15.2812 317.992 15.2344 321.086 15.1406C324.133 15.0469 326.523 15 328.258 15C329.242 15 329.922 15.1406 330.297 15.4219C330.859 15.8438 331.141 16.6641 331.141 17.8828C331.141 19.0547 330.812 19.7344 330.156 19.9219C330.062 20.1094 329.617 20.3438 328.82 20.625C328.633 20.7188 328.352 20.8594 327.977 21.0469C324.602 21.75 322.539 22.8516 321.789 24.3516C321.039 26.0859 320.664 28.9219 320.664 32.8594V63.375C326.289 60.5156 331.609 57.6797 336.625 54.8672C340.75 52.3828 343.867 50.0859 345.977 47.9766C347.898 46.0547 349.445 44.3203 350.617 42.7734C351.18 42.0234 351.695 41.0156 352.164 39.75V33C352.164 29.0625 351.789 26.2266 351.039 24.4922C350.242 22.7578 348.742 21.7031 346.539 21.3281C344.242 20.6719 342.906 20.2031 342.531 19.9219C341.875 19.8281 341.547 19.1484 341.547 17.8828C341.547 15.9609 342.555 15 344.57 15C347.805 15 350.758 15.0469 353.43 15.1406C356.148 15.2344 359.195 15.2812 362.57 15.2812C366.18 15.2812 369.484 15.2344 372.484 15.1406C375.531 15.0469 377.922 15 379.656 15C380.453 15 381.18 15.1406 381.836 15.4219C382.305 15.9375 382.539 16.7578 382.539 17.8828C382.539 19.1484 382.211 19.8281 381.555 19.9219C381.086 20.2969 380.312 20.6719 379.234 21.0469C376.188 21.75 374.172 22.8516 373.188 24.3516C372.438 25.8047 372.062 28.6406 372.062 32.8594V92.625C372.062 98.0156 372.156 101.367 372.344 102.68C372.625 104.602 374.734 106.055 378.672 107.039C380.031 107.32 380.945 107.695 381.414 108.164C382.164 108.445 382.539 109.266 382.539 110.625C382.539 111.703 382.398 112.383 382.117 112.664C381.555 113.227 380.734 113.508 379.656 113.508H344.57C343.492 113.508 342.766 113.32 342.391 112.945C341.828 112.477 341.547 111.703 341.547 110.625C341.547 109.594 341.922 108.773 342.672 108.164C342.953 107.789 344.383 107.273 346.961 106.617C349.258 105.914 350.664 104.906 351.18 103.594C351.836 101.578 352.164 97.9219 352.164 92.625V48.6797C351.32 52.6172 348.625 56.2266 344.078 59.5078C339.016 63.1641 334.609 66.2812 330.859 68.8594C328.656 71.0625 326.969 73.125 325.797 75.0469C324.953 76.125 323.758 77.9531 322.211 80.5312C322.117 80.625 321.602 81.4453 320.664 82.9922Z" fill="#6B0000"/>
<path d="M414.742 61.125L410.312 51.5625H429.156L457.703 113.508H438.648L428.594 92.625C426.766 96.375 424.516 99.7031 421.844 102.609C419.219 105.469 416.547 107.766 413.828 109.5C411.109 111.234 408.648 112.523 406.445 113.367C404.242 114.211 402.648 114.633 401.664 114.633C397.633 114.633 395.102 113.531 394.07 111.328C393.086 109.125 392.594 105.141 392.594 99.375C392.594 95.4375 393.391 91.3125 394.984 87C396.578 82.6875 398.594 78.6328 401.031 74.8359C403.469 71.0391 405.93 67.8984 408.414 65.4141C410.945 62.9297 413.055 61.5 414.742 61.125ZM427.188 87.8438L417.344 66.1172C413.5 67.1016 410.641 69.9375 408.766 74.625C406.891 79.3125 405.953 84.5859 405.953 90.4453C406.281 96.5859 408.109 99.6562 411.438 99.6562C413.172 99.6562 415.656 98.4375 418.891 96C422.172 93.5625 424.938 90.8438 427.188 87.8438Z" fill="#6B0000"/>
<path d="M532.305 51.5625L514.023 81.2344V57.8906H506.992V113.508H490.117V57.8906H482.945V83.5547C482.758 83.5547 482.406 83.5547 481.891 83.5547C478.938 83.6484 476.031 84 473.172 84.6094C470.359 85.1719 467.992 86.4141 466.07 88.3359C467.43 83.3203 468.109 77.3672 468.109 70.4766C468.109 66.4453 467.922 62.9297 467.547 59.9297C467.219 56.8828 466.773 54.0938 466.211 51.5625H532.305Z" fill="#6B0000"/>
<path d="M556.422 110.344C556.844 112.922 557.078 114.305 557.125 114.492C557.172 114.68 557.383 115.594 557.758 117.234L557.898 118.078C558.367 121.266 558.695 123.844 558.883 125.812C559.07 127.781 559.164 129.68 559.164 131.508L559.023 132.914C559.023 133.383 559.023 133.922 559.023 134.531C558.93 136.312 558.344 138.141 557.266 140.016C556.234 141.891 554.898 143.625 553.258 145.219C551.617 146.812 549.93 148.102 548.195 149.086C546.508 150.117 545.078 150.68 543.906 150.773C542.875 150.961 541.891 151.078 540.953 151.125C540.062 151.172 538.891 151.195 537.438 151.195C537.531 150.914 537.859 150.492 538.422 149.93C539.688 148.477 540.836 146.789 541.867 144.867C542.664 143.32 543.227 141.727 543.555 140.086C543.883 138.492 544.047 136.477 544.047 134.039C544.047 131.18 543.953 128.648 543.766 126.445C543.578 124.242 543.203 121.688 542.641 118.781C541 111.328 539.781 104.812 538.984 99.2344C538.234 93.6562 537.859 89.4375 537.859 86.5781C537.859 85.6406 537.953 84.8203 538.141 84.1172C538.234 83.9297 538.328 83.6484 538.422 83.2734C539.5 79.4297 540.531 76.2422 541.516 73.7109C542.547 71.1328 544.117 68.2266 546.227 64.9922C547.68 62.9766 548.992 61.2656 550.164 59.8594C551.383 58.4531 552.602 57.2812 553.82 56.3438C555.555 54.9844 558.742 53.0156 563.383 50.4375L564.789 49.7344C573.836 55.0781 579.203 58.4766 580.891 59.9297C583.891 62.0391 586.422 65.0391 588.484 68.9297C590.547 72.8203 591.578 77.5078 591.578 82.9922C591.578 92.0859 589.281 99.2344 584.688 104.438C580.141 109.641 573.836 113.086 565.773 114.773C563.852 113.367 561.555 112.172 558.883 111.188C557.852 110.906 557.031 110.625 556.422 110.344ZM568.375 110.344C569.922 108.984 572.195 106.828 575.195 103.875C575.945 102.984 576.555 101.789 577.023 100.289C577.492 98.7422 577.867 97.1016 578.148 95.3672C578.477 93.6328 578.688 92.0859 578.781 90.7266C578.875 89.3203 578.922 88.3594 578.922 87.8438C578.922 81.1406 575.172 74.3438 567.672 67.4531L564.086 64.2891C560.805 61.1953 558.695 59.1797 557.758 58.2422C557.148 58.4297 556.539 58.8047 555.93 59.3672C555.32 59.9297 554.688 60.9141 554.031 62.3203C553.422 63.7266 552.883 65.7656 552.414 68.4375C551.945 71.1094 551.711 74.4141 551.711 78.3516C551.711 82.8984 551.992 87.4453 552.555 91.9922C553.117 96.5391 553.984 101.414 555.156 106.617C555.531 106.992 556.562 107.414 558.25 107.883C559.938 108.352 562.352 108.938 565.492 109.641C566.289 109.828 567.25 110.062 568.375 110.344Z" fill="#6B0000"/>
<path d="M619 92.625V102.82L621.602 105.703L640.445 95.5078L649.516 102.82L625.82 115.477H615.414L606.344 110.203L603.18 105.703V67.875L606.344 62.9531L632.43 51.1406L643.609 57.6094L619 71.0391V82.1484L637.773 72.3047L643.82 80.25L619 92.625Z" fill="#6B0000"/>
<path d="M707.031 109.219H721.727V51.5625H738.602V113.508H658.938V51.5625H675.672V109.219H690.156V51.5625H707.031V109.219Z" fill="#6B0000"/>
<path d="M771.297 79.4062L772.281 79.2656C775.562 78.75 778.117 78.2578 779.945 77.7891C786.742 82.9922 791.875 88.3594 795.344 93.8906C798.812 99.375 800.969 105.82 801.812 113.227L785.008 113.508V107.602C785.008 101.93 783.414 96.7969 780.227 92.2031C778.961 90.375 777.578 88.8516 776.078 87.6328C774.625 86.3672 773.312 85.4766 772.141 84.9609C770.219 84.3984 768.555 84.1172 767.148 84.1172V113.508H750.273V51.5625H767.148V79.9688L768.414 78.7734C768.883 76.9922 769.562 74.8828 770.453 72.4453C771.391 69.9609 772.398 67.5469 773.477 65.2031C774.602 62.8594 775.797 60.75 777.062 58.875C778.328 57 779.43 55.6641 780.367 54.8672C782.195 53.2734 783.484 52.2656 784.234 51.8438C785.031 51.375 785.898 51.1406 786.836 51.1406C787.539 51.1406 788.5 51.2344 789.719 51.4219C790.891 51.6094 791.711 51.7031 792.18 51.7031V71.4609C789.695 71.2734 788.102 70.1719 787.398 68.1562C786.742 66.1406 785.734 65.1328 784.375 65.1328C783.062 65.4141 781.727 66.0938 780.367 67.1719C779.008 68.2031 777.742 69.4453 776.57 70.8984C775.445 72.3516 774.391 73.8516 773.406 75.3984C772.469 76.8984 771.766 78.2344 771.297 79.4062Z" fill="#6B0000"/>
<path d="M835.914 61.125L831.484 51.5625H850.328L878.875 113.508H859.82L849.766 92.625C847.938 96.375 845.688 99.7031 843.016 102.609C840.391 105.469 837.719 107.766 835 109.5C832.281 111.234 829.82 112.523 827.617 113.367C825.414 114.211 823.82 114.633 822.836 114.633C818.805 114.633 816.273 113.531 815.242 111.328C814.258 109.125 813.766 105.141 813.766 99.375C813.766 95.4375 814.562 91.3125 816.156 87C817.75 82.6875 819.766 78.6328 822.203 74.8359C824.641 71.0391 827.102 67.8984 829.586 65.4141C832.117 62.9297 834.227 61.5 835.914 61.125ZM848.359 87.8438L838.516 66.1172C834.672 67.1016 831.812 69.9375 829.938 74.625C828.062 79.3125 827.125 84.5859 827.125 90.4453C827.453 96.5859 829.281 99.6562 832.609 99.6562C834.344 99.6562 836.828 98.4375 840.062 96C843.344 93.5625 846.109 90.8438 848.359 87.8438Z" fill="#6B0000"/>
<path d="M605.312 56.0078V43.5078L614.812 39.0078V51.5078L605.312 56.0078Z" fill="#6B0000"/>
<path d="M621.812 48.5078V36.0078L631.312 31.5078V44.0078L621.812 48.5078Z" fill="#6B0000"/>
<path d="M929.715 132.445C932.838 125.786 933.411 119.812 934.318 109.425C934.81 103.795 934.922 99.1199 934.932 95.92C932.12 96.6843 926.861 98.5517 922.347 103.288C917.298 108.584 915.833 114.691 915.287 117.101C913.303 125.852 916.385 129.401 913.446 135.824C911.726 139.581 908.99 142.032 907 143.494C908.964 144.745 912.798 146.743 917.129 145.95C923.965 144.7 927.417 137.342 929.715 132.445ZM919.585 124.158C919.69 121.651 920.587 121.17 922.041 116.79C923.995 110.913 923.188 109.354 925.111 106.661C926.064 105.326 927.753 103.622 930.943 102.363C931.376 105.535 931.776 111.603 929.409 118.63C927.279 124.95 923.858 129.235 921.735 131.521C920.658 129.793 919.458 127.223 919.585 124.158Z" fill="#6B0000"/>
<path d="M974.219 9.20714C973.48 5.09528 971.755 1.98206 970.382 0C970.206 1.42667 969.771 3.51828 968.54 5.67867C966.311 9.59438 963.776 9.68864 960.867 12.891C956.146 18.0882 956.116 25.2215 956.11 27.01C956.093 31.2212 957.275 34.5917 957.952 36.5254C958.791 38.9201 959.771 40.836 960.561 42.204C961.43 42.255 962.301 42.3059 963.17 42.3569C963.05 44.9402 963.093 47.9438 963.476 51.2583C964.026 56.0173 965.124 60.0553 966.237 63.2296C964.53 61.8233 962.158 59.5381 960.253 56.1701C958.342 52.792 958.498 51.1513 956.569 45.5797C954.923 40.8283 953.777 37.5164 951.199 33.9166C949.201 31.1295 946.473 27.3208 941.53 25.9349C938.336 25.0381 935.492 25.5145 933.857 25.9349C933.908 27.0609 933.959 28.1844 934.01 29.3105C934.759 30.006 935.824 31.1193 936.771 32.6861C939.508 37.2005 938.096 40.2016 939.533 45.1185C940.899 49.7909 943.833 52.7589 947.054 56.0147C948.918 57.9 951.499 60.5113 955.647 62.4602C958.638 63.8665 959.252 63.4283 962.401 64.9161C964.286 65.8078 965.763 66.7657 970.688 70.7477C978.428 77.0047 978.198 77.3995 980.664 78.7294C985.001 81.0656 989.026 81.6311 990.794 81.7993C997.466 82.4311 1002.75 80.3242 1005.37 79.0377C1004.49 81.3356 1003.53 84.5788 1003.23 88.5531C1002.83 93.656 1003.68 97.8392 1004.45 100.524C1001.76 97.5105 997.532 93.3655 991.563 89.6282C986.16 86.2449 984.088 86.1787 977.136 82.7215C963.774 76.0773 964.953 73.1093 956.877 70.5974C954.011 69.7057 942.529 66.1314 933.857 71.5171C930.15 73.8201 928.968 76.5079 923.728 78.7294C919.707 80.4338 915.934 80.7446 913.292 80.7242C913.14 81.491 912.987 82.2579 912.831 83.0272C917.05 86.1965 921.014 88.125 924.036 89.3199C929.042 91.2994 932.54 92.6828 936.774 91.9287C938.886 91.5516 941.813 89.7326 947.67 86.0971C952.511 83.0909 953.94 81.835 957.033 81.0325C960.21 80.207 963.053 80.4057 965.014 80.7267C963.144 81.3968 960.48 82.4107 957.341 83.7966C952.134 86.0971 949.53 87.2461 947.212 89.0142C942.035 92.963 940.16 98.5423 938.771 102.672C937.332 106.952 934.919 114.126 937.39 122.623C941.311 136.11 954.156 141.289 955.499 141.806C959.18 143.22 967.914 146.575 976.063 141.806C981.666 138.527 986.007 131.988 985.732 124.77C985.704 124.054 985.25 115.545 978.672 111.418C977.653 110.779 971.969 107.411 968.237 110.19C966.329 111.609 965.376 114.302 965.781 116.788C966.166 119.155 967.751 121.155 969.618 122.006C971.271 122.76 972.084 122.131 972.994 122.926C974.517 124.261 974.316 127.85 972.841 130.138C969.998 134.545 962.612 133.835 960.869 133.669C959.101 133.498 953.41 132.953 949.512 128.143C947.39 125.527 946.699 122.758 946.442 121.237C946.878 121.474 951.171 123.715 955.649 121.542C959.055 119.891 961.346 116.281 961.175 112.488C961.007 108.774 958.472 104.68 955.035 104.201C953.038 103.923 950.49 104.832 949.971 106.348C949.624 107.36 950.391 108.017 950.585 110.799C950.689 112.284 950.73 113.036 950.279 113.408C949.357 114.167 946.753 113.115 945.367 111.413C943.479 109.092 944.068 105.834 944.447 103.892C945.782 97.057 950.75 92.828 951.66 92.0739C958.956 86.0487 967.893 86.9149 969.924 87.1621C969.302 87.427 965.353 89.1798 964.092 93.4547C963.218 96.4176 963.537 100.912 966.701 102.97C969.71 104.927 973.353 103.418 974.069 103.123C974.632 102.891 978.639 101.233 978.519 98.6722C978.417 96.5271 975.485 95.0521 973.455 94.6827C972.12 94.4381 970.973 94.6368 970.232 94.8355C970.535 94.2699 971.052 93.4853 971.921 92.8407C973.23 91.8675 975.128 91.3682 978.98 92.0739C981.75 92.5809 987.171 93.5744 992.18 98.0583C995.27 100.825 997.158 103.987 998.934 106.96C999.889 108.562 1000.6 109.953 1001.08 110.949C1002 110.526 1003.02 110.106 1004.15 109.721C1005.07 109.408 1005.94 109.158 1006.76 108.954C1007.93 110.422 1009.67 112.491 1011.98 114.786C1016.51 119.298 1019.4 122.172 1023.8 123.84C1030.5 126.385 1036.75 124.625 1038.99 123.993C1042.65 122.961 1049.72 120.972 1053.11 114.172C1053.57 113.252 1056.87 106.333 1053.26 99.5919C1050.58 94.596 1044.79 90.9631 1039.3 91.7656C1038.41 91.8955 1034.06 92.5299 1032.39 96.0635C1030.74 99.5716 1032.99 103.263 1033.46 104.045C1034.06 105.026 1035.5 107.38 1038.22 107.882C1039.6 108.137 1040.78 107.816 1041.44 107.576C1041.61 109.031 1041.75 112.238 1039.75 114.636C1036.05 119.081 1028.14 116.926 1025.94 116.325C1024.42 115.91 1019.79 114.577 1016.27 110.185C1014.8 108.351 1013.98 106.55 1013.51 105.273C1014.83 105.79 1017.05 106.463 1019.8 106.348C1022.14 106.251 1025.67 106.104 1027.48 103.431C1028.61 101.755 1029.04 99.1308 1027.78 96.9857C1026.53 94.8559 1023.74 93.3885 1021.64 94.2241C1019.92 94.9119 1019.17 96.9704 1018.88 97.7551C1018.49 98.8149 1018.42 99.7575 1018.42 100.364C1016.88 99.9741 1014.22 99.0442 1012.13 96.68C1008.88 93.0063 1009.16 88.3034 1009.37 84.8615C1009.49 82.7521 1010.03 75.5907 1015.66 69.2064C1017.05 67.6268 1022.35 61.8029 1031.01 60.9189C1037.67 60.2387 1042.8 62.8449 1045.28 64.1417C1048.62 65.8919 1050.99 67.9835 1052.49 69.5121C1050.59 68.465 1047.72 67.0689 1044.05 65.9836C1039.35 64.5926 1035.22 63.3697 1030.24 64.6028C1029.1 64.883 1023.41 66.4065 1019.49 71.8151C1018 73.8762 1014.42 78.816 1016.42 83.6336C1017.49 86.2041 1020.1 88.6066 1023.48 89.004C1025.93 89.2919 1029.29 88.5887 1030.85 86.2424C1032.83 83.2642 1029.92 80.6732 1031.46 76.727C1032.94 72.959 1037.53 70.3757 1041.59 70.4343C1042.57 70.4496 1044.87 70.6356 1050.49 74.885C1056.55 79.4555 1060.24 84.0387 1060.78 84.7061C1066.98 92.4968 1066.42 95.6507 1071.67 101.434C1075.19 105.304 1078.86 107.653 1081.19 108.954C1083.9 108.343 1087.17 107.36 1090.7 105.732C1095.51 103.52 1099.18 100.866 1101.75 98.6722C1097.72 98.3614 1092.05 97.5411 1085.64 95.2966C1078.38 92.7566 1070.27 89.9135 1064.61 82.5585C1060.55 77.2671 1061.62 74.6659 1056.17 68.5924C1052.36 64.3353 1048.52 61.9125 1046.81 60.9189C1042.96 58.6694 1037.71 55.6071 1030.54 55.8542C1019.99 56.2185 1013.22 63.4818 1011.82 65.0639C1010.04 67.0689 1008.88 69.0076 1008.14 70.4343C1006.81 70.8547 1005.03 71.2674 1002.92 71.354C999.756 71.4865 997.188 70.8394 995.55 70.2789C995.377 69.0993 994.817 66.4269 992.633 64.1391C991.91 63.3799 988.847 60.1725 986.035 61.2221C984.152 61.9252 983.25 64.2079 983.118 65.8257C982.914 68.3376 984.494 70.3095 986.188 72.424C987.327 73.8481 988.46 74.8544 989.258 75.4939C988.132 75.6977 987.008 75.9041 985.882 76.1079C982.715 74.5258 977.358 71.2827 972.991 65.2117C971.302 62.8628 967.921 57.5357 967.007 50.1705C966.556 46.5401 966.138 42.7365 968.54 39.58C968.9 39.1061 971.366 35.9751 975.139 36.049C978.896 36.1254 982.308 39.3456 981.892 40.9608C981.546 42.3085 978.761 41.6512 977.442 43.7224C976.27 45.5618 977.034 48.3285 978.209 50.0151C979.528 51.9054 982.127 53.5283 984.654 52.9321C988.478 52.0277 989.303 46.7184 989.41 46.0255C990.246 40.6449 986.376 36.5483 985.574 35.7433C984.934 35.1012 980.583 30.7321 974.983 31.9065C972.369 32.4543 970.609 33.9752 969.766 34.8236C970.306 33.5294 971.745 30.5716 974.983 28.2252C975.821 27.6189 978.784 25.6011 983.118 25.3082C987.813 24.9923 991.26 26.8953 992.786 27.7641C999.96 31.8479 1002.13 39.4118 1002.61 41.2691C998.159 41.9544 995.033 45.8038 995.239 49.8648C995.489 54.7307 1000.42 57.714 1004.14 57.5382C1009.34 57.2936 1012.38 50.8889 1013.2 47.256C1014.99 39.2972 1009.42 29.9474 999.382 23.3134C1003.34 24.2458 1005.9 23.6191 1007.52 22.8522C1009.41 21.9555 1010.63 20.5747 1014.11 19.1684C1015.32 18.6818 1016.04 18.3913 1017.03 18.2487C1020.23 17.7825 1022.92 19.3238 1024.24 20.2435C1025.28 19.5454 1025.82 18.399 1025.63 17.3264C1025.47 16.5035 1024.93 15.9864 1024.71 15.7928C1024.07 15.8412 1023.1 15.8819 1021.94 15.7928C1016.99 15.4081 1013.83 13.0566 1011.35 11.6503C1006.06 8.63393 1000.05 7.71933 995.698 7.96645C992.926 8.1244 986.277 8.50143 982.654 13.6451C980.173 17.1685 980.336 21.1835 980.507 22.8522C978.947 23.2114 976.823 23.8713 974.522 25.1553C972.155 26.475 970.438 27.9832 969.305 29.1449C970.469 27.494 972.033 24.9133 973.141 21.4714C973.857 19.2779 975.23 14.8272 974.219 9.20714ZM947.517 52.0277C944.745 48.5425 942.763 43.5339 942.147 39.2896C942.002 38.296 941.795 36.3929 940.919 33.9191C940.18 31.8301 939.278 30.2174 938.616 29.1627C942.779 29.7563 945.14 31.4963 946.289 32.5383C949.581 35.5267 950.597 39.7685 951.66 44.2014C952.488 47.6585 952.195 48.4585 953.193 51.4137C954.281 54.6314 955.772 57.0618 956.877 58.6261C951.657 56.6466 948.855 53.7117 947.517 52.0277ZM937.846 86.25C934.695 87.0015 929.829 86.8793 922.805 82.2604C924.581 81.3127 927.315 79.8325 930.632 77.9626C938.83 73.3412 939.039 72.8393 941.222 72.2839C947.153 70.7757 952.669 72.6813 955.955 73.8176C959.252 74.9564 961.787 76.4009 963.476 77.5014C960.179 77.1906 955.277 77.2034 950.123 79.3434C944.221 81.7942 942.621 85.1138 937.846 86.25ZM993.711 18.1086C989.93 17.2551 986.774 17.0691 984.809 17.0335C985.778 15.7928 989.296 11.5968 995.4 10.4351C1004.6 8.68231 1011.29 15.4106 1011.82 15.9609C1008.65 19.1837 1005.87 20.0397 1004 20.2588C1000.73 20.6384 998.776 19.2524 993.711 18.1086ZM961.328 35.1446C960.533 33.5472 958.34 28.6073 959.794 22.7121C961.104 17.4054 964.678 14.147 966.393 12.5827C967.781 11.3166 969.093 10.4198 970.077 9.82112C970.678 11.3446 971.317 13.6578 970.843 16.2666C970.191 19.8639 967.873 21.5096 965.473 25.168C964.09 27.2749 962.383 30.5053 961.328 35.1446Z" fill="#6B0000"/>
<path d="M1059.24 47.2684C1062.94 53.4973 1061.33 58.4601 1063.39 65.3769C1064.62 69.5219 1067.4 75.1853 1074.43 81.0321C1075.34 78.5023 1076.8 74.8286 1079.04 70.597C1082.06 64.8801 1083.54 63.7337 1083.64 61.0816C1083.86 55.6297 1077.97 51.286 1073.97 48.3435C1070.07 45.4621 1062.55 40.884 1050.95 39.2892C1053.42 40.7235 1056.83 43.1947 1059.24 47.2684ZM1072.6 51.8719C1076.55 56.9595 1076.48 62.4701 1076.43 64.149C1076.33 67.9857 1075.11 70.9409 1074.28 72.5893C1072.22 71.4887 1069.32 69.5168 1067.84 66.1438C1066.31 62.6611 1067.38 60.1899 1066.61 55.5533C1066.2 53.0897 1065.19 49.4746 1062.31 45.271C1063.89 45.6557 1068.87 47.0773 1072.6 51.8719Z" fill="#6B0000"/>
<path d="M1105.28 61.5406C1102.86 62.2463 1101.79 60.9495 1096.84 60.6209C1093.21 60.3789 1089.44 60.1267 1086.87 62.31C1085.08 63.8335 1085.17 65.4436 1083.64 69.5223C1082.75 71.9222 1081.27 75.2545 1078.73 79.0377C1078.99 79.6007 1079.25 80.1638 1079.5 80.7268C1081.08 79.7587 1083.47 78.4441 1086.56 77.3512C1094.04 74.7042 1096.17 76.6939 1101.14 74.4342C1106.37 72.0572 1110.78 66.7862 1111.88 60.7763C1112.41 57.9153 1112.08 55.4594 1111.73 53.8697C1109.69 59.2274 1107.23 60.9776 1105.28 61.5406ZM1107.89 63.8437C1105.08 69.7032 1101.76 71.4789 1099.91 72.1311C1099.27 72.3578 1098.49 72.5591 1092.85 73.2062C1089.82 73.5527 1087.33 73.8074 1085.64 73.973C1085.87 72.8113 1086.39 70.9745 1087.63 69.0612C1088.42 67.8587 1090.67 64.4016 1094.23 63.8437C1096.9 63.4258 1097.76 65.0232 1101.29 65.2245C1104.03 65.3824 1106.33 64.5799 1107.89 63.8437Z" fill="#6B0000"/>
<path d="M1082.57 83.4887C1080.23 84.1002 1078.24 84.4033 1076.89 84.5638C1077.41 85.3307 1077.92 86.0975 1078.43 86.8669C1079.75 87.1038 1081.8 87.5216 1084.26 88.2477C1091.47 90.3826 1093.24 92.5456 1098.07 94.0792C1100.38 94.8104 1106.92 96.5224 1113.73 94.385C1119.01 92.7264 1119.87 90.1839 1126.77 87.4783C1130.66 85.9548 1134.06 85.3205 1136.29 85.0224C1134.28 84.5486 1131.26 83.7435 1127.69 82.4136C1122.27 80.3959 1121.36 79.3157 1117.1 77.9629C1114.4 77.1044 1110.36 75.856 1105.28 76.121C1100.72 76.3579 1097.25 77.7133 1093.46 79.1909C1089.1 80.8952 1087.31 82.2506 1082.57 83.4887ZM1112.5 80.7271C1116.94 81.8888 1120.14 84.0136 1122.01 85.4835C1119.59 87.9369 1115.66 90.9558 1110.35 91.7762C1106.15 92.4258 1102.77 91.4399 1097.61 89.9342C1093.03 88.5967 1089.38 86.9382 1086.87 85.6364C1091.23 82.9283 1095.23 81.6646 1097.92 81.0328C1101.25 80.2507 1106.35 79.1145 1112.5 80.7271Z" fill="#6B0000"/>
<path d="M949.204 148.254C946.501 147.141 942.04 144.781 937.694 139.505C937.029 139.505 936.364 139.505 935.699 139.505C936.369 142.01 937.576 145.581 939.844 149.482C941.245 151.892 943.652 155.945 948.284 159.611C951.486 162.146 954.704 164.694 959.489 164.982C960.077 165.017 965.519 165.272 970.079 161.912C972.171 160.37 972.667 159.107 975.758 156.847C977.831 155.331 979.717 154.361 980.975 153.777C980.208 152.651 979.442 151.525 978.672 150.402C975.554 150.593 971.052 150.756 965.628 150.554C957.692 150.261 953.637 150.078 949.204 148.254ZM950.585 152.244C952.64 152.796 955.749 153.632 959.794 153.624C964.571 153.614 966.742 152.432 968.235 153.93C969.136 154.834 969.429 156.355 969.001 157.459C968.196 159.535 964.925 159.881 963.17 160.067C962.067 160.184 957.912 160.511 952.888 158.072C947.759 155.583 944.796 151.703 943.372 149.479C945.046 150.328 947.494 151.41 950.585 152.244Z" fill="#6B0000"/>
<path d="M206.572 32.5546C203.448 39.2141 202.875 45.1883 201.968 55.575C201.476 61.2052 201.364 65.8801 201.354 69.08C204.167 68.3157 209.425 66.4483 213.939 61.7122C218.989 56.4157 220.454 50.309 220.999 47.899C222.984 39.1479 219.901 35.599 222.841 29.1764C224.561 25.4187 227.297 22.9679 229.286 21.5055C227.322 20.2546 223.488 18.2573 219.157 19.0496C212.322 20.3005 208.87 27.658 206.572 32.5546ZM216.701 40.842C216.597 43.3489 215.7 43.8304 214.245 48.2098C212.291 54.0872 213.099 55.6463 211.175 58.3391C210.222 59.6741 208.533 61.3785 205.344 62.637C204.911 59.4652 204.511 53.3967 206.877 46.3704C209.007 40.0497 212.429 35.7646 214.551 33.4794C215.629 35.2067 216.828 37.7772 216.701 40.842Z" fill="#6B0000"/>
<path d="M162.067 155.793C162.806 159.905 164.531 163.018 165.904 165C166.08 163.573 166.516 161.482 167.746 159.321C169.975 155.406 172.51 155.311 175.42 152.109C180.14 146.912 180.171 139.778 180.176 137.99C180.194 133.779 179.012 130.408 178.334 128.475C177.496 126.08 176.515 124.164 175.725 122.796C174.857 122.745 173.985 122.694 173.116 122.643C173.236 120.06 173.193 117.056 172.811 113.742C172.26 108.983 171.162 104.945 170.049 101.77C171.756 103.177 174.128 105.462 176.034 108.83C177.944 112.208 177.789 113.849 179.717 119.42C181.363 124.172 182.51 127.484 185.088 131.083C187.085 133.871 189.814 137.679 194.756 139.065C197.951 139.962 200.794 139.485 202.429 139.065C202.379 137.939 202.328 136.816 202.277 135.69C201.528 134.994 200.463 133.881 199.515 132.314C196.779 127.8 198.19 124.798 196.753 119.881C195.388 115.209 192.453 112.241 189.233 108.985C187.368 107.1 184.787 104.489 180.64 102.54C177.649 101.133 177.035 101.572 173.886 100.084C172.001 99.1922 170.523 98.2343 165.598 94.2523C157.859 87.9953 158.088 87.6005 155.622 86.2706C151.286 83.9344 147.261 83.3689 145.493 83.2007C138.82 82.5689 133.537 84.6758 130.912 85.9623C131.794 83.6644 132.754 80.4212 133.06 76.4469C133.452 71.344 132.604 67.1608 131.832 64.4756C134.528 67.4895 138.754 71.6345 144.723 75.3718C150.127 78.7551 152.198 78.8213 159.15 82.2785C172.513 88.9227 171.333 91.8907 179.409 94.4026C182.275 95.2943 193.757 98.8686 202.429 93.4829C206.136 91.1799 207.318 88.4921 212.559 86.2706C216.579 84.5662 220.352 84.2554 222.994 84.2758C223.147 83.509 223.3 82.7421 223.455 81.9728C219.236 78.8035 215.272 76.875 212.251 75.6801C207.245 73.7006 203.747 72.3172 199.512 73.0713C197.4 73.4484 194.473 75.2674 188.616 78.9029C183.776 81.9091 182.347 83.165 179.254 83.9675C176.077 84.793 173.234 84.5943 171.272 84.2733C173.142 83.6032 175.807 82.5893 178.945 81.2034C184.153 78.9029 186.756 77.7539 189.075 75.9858C194.252 72.037 196.127 66.4577 197.515 62.328C198.955 58.048 201.367 50.8738 198.896 42.3775C194.975 28.8903 182.13 23.711 180.787 23.1938C177.106 21.7799 168.373 18.4247 160.223 23.1938C154.621 26.4726 150.28 33.0124 150.555 40.2298C150.583 40.9457 151.036 49.4548 157.614 53.582C158.633 54.2214 164.317 57.5894 168.049 54.8099C169.957 53.3909 170.91 50.6981 170.505 48.2116C170.12 45.8448 168.536 43.8449 166.668 42.994C165.015 42.2399 164.202 42.8692 163.293 42.0743C161.769 40.7394 161.971 37.1498 163.446 34.862C166.289 30.4546 173.674 31.1654 175.417 31.331C177.185 31.5017 182.876 32.0469 186.774 36.8568C188.896 39.4732 189.587 42.2425 189.844 43.7634C189.409 43.5265 185.116 41.2846 180.637 43.4577C177.231 45.1085 174.941 48.7185 175.111 52.512C175.279 56.2264 177.814 60.3204 181.251 60.7994C183.248 61.0771 185.796 60.1676 186.316 58.6517C186.662 57.6403 185.895 56.983 185.702 54.201C185.597 52.7158 185.557 51.9642 186.007 51.5923C186.93 50.8331 189.533 51.8852 190.919 53.5871C192.807 55.908 192.219 59.1664 191.839 61.1077C190.504 67.943 185.536 72.172 184.627 72.9261C177.33 78.9513 168.393 78.0851 166.363 77.8379C166.984 77.573 170.933 75.8202 172.194 71.5453C173.068 68.5824 172.75 64.0884 169.585 62.0299C166.577 60.0733 162.934 61.5815 162.218 61.877C161.655 62.1089 157.647 63.7674 157.767 66.3278C157.869 68.4729 160.801 69.9479 162.832 70.3173C164.167 70.5619 165.313 70.3632 166.054 70.1645C165.751 70.7301 165.234 71.5147 164.365 72.1593C163.056 73.1325 161.158 73.6318 157.306 72.9261C154.537 72.4191 149.115 71.4256 144.107 66.9417C141.016 64.175 139.129 61.0134 137.353 58.0403C136.398 56.4379 135.687 55.0469 135.205 54.0507C134.291 54.4736 133.266 54.894 132.135 55.2787C131.218 55.592 130.344 55.8417 129.527 56.0455C128.36 54.5781 126.615 52.5094 124.309 50.214C119.777 45.7021 116.89 42.8284 112.491 41.1597C105.788 38.6146 99.5384 40.3751 97.2965 41.0069C93.633 42.0387 86.5684 44.0284 83.1775 50.828C82.719 51.7477 79.4121 58.667 83.0247 65.4081C85.7022 70.404 91.4981 74.0369 96.9908 73.2344C97.8799 73.1045 102.231 72.4701 103.897 68.9365C105.551 65.4284 103.299 61.7369 102.822 60.9548C102.224 59.974 100.789 57.62 98.0659 57.1181C96.6825 56.8633 95.503 57.1843 94.8431 57.4238C94.6775 55.9691 94.5323 52.7616 96.5322 50.3643C100.239 45.9187 108.142 48.074 110.345 48.6752C111.866 49.0905 116.495 50.4229 120.014 54.815C121.484 56.6493 122.309 58.4505 122.775 59.7269C121.453 59.2097 119.239 58.5371 116.483 58.6517C114.149 58.7486 110.621 58.8963 108.809 61.5688C107.673 63.2451 107.245 65.8692 108.504 68.0143C109.752 70.1441 112.549 71.6115 114.643 70.7759C116.371 70.0881 117.12 68.0296 117.405 67.2449C117.792 66.1851 117.864 65.2425 117.866 64.6361C119.41 65.0259 122.07 65.9558 124.159 68.32C127.407 71.9937 127.127 76.6966 126.92 80.1385C126.795 82.2479 126.26 89.4093 120.628 95.7936C119.234 97.3732 113.935 103.197 105.281 104.081C98.6187 104.761 93.4827 102.155 91.009 100.858C87.669 99.1081 85.2946 97.0165 83.7966 95.4879C85.6946 96.535 88.5632 97.9311 92.2369 99.0164C96.9322 100.407 101.064 101.63 106.05 100.397C107.189 100.117 112.873 98.5935 116.794 93.1849C118.286 91.1238 121.866 86.184 119.863 81.3664C118.793 78.7959 116.19 76.3934 112.804 75.996C110.353 75.7081 107 76.4113 105.436 78.7576C103.452 81.7358 106.369 84.3268 104.822 88.273C103.347 92.041 98.7537 94.6243 94.6928 94.5657C93.7171 94.5504 91.4191 94.3644 85.7914 90.115C79.7382 85.5445 76.0416 80.9613 75.5092 80.2939C69.3082 72.5032 69.8687 69.3493 64.613 63.5661C61.0972 59.6963 57.4286 57.3474 55.0976 56.0455C52.3895 56.657 49.1183 57.6403 45.5822 59.2683C40.7773 61.4796 37.1113 64.1343 34.5331 66.3278C38.5686 66.6386 44.2319 67.4589 50.6469 69.7034C57.9025 72.2434 66.0193 75.0865 71.6725 82.4415C75.741 87.7329 74.6685 90.3341 80.1127 96.4076C83.9291 100.665 87.7709 103.088 89.4753 104.081C93.3247 106.331 98.5729 109.393 105.744 109.146C116.299 108.781 123.068 101.518 124.467 99.9361C126.243 97.9311 127.409 95.9924 128.151 94.5657C129.478 94.1453 131.254 93.7326 133.368 93.646C136.53 93.5135 139.098 94.1606 140.736 94.7211C140.909 95.9007 141.47 98.5731 143.653 100.861C144.377 101.62 147.439 104.828 150.252 103.778C152.134 103.075 153.036 100.792 153.169 99.1743C153.372 96.6624 151.793 94.6905 150.099 92.576C148.96 91.1519 147.826 90.1456 147.029 89.5061C148.155 89.3023 149.278 89.0959 150.404 88.8921C153.571 90.4742 158.929 93.7173 163.295 99.7883C164.984 102.137 168.365 107.464 169.28 114.83C169.731 118.46 170.148 122.264 167.746 125.42C167.387 125.894 164.921 129.025 161.148 128.951C157.39 128.875 153.979 125.654 154.394 124.039C154.74 122.692 157.525 123.349 158.845 121.278C160.017 119.438 159.252 116.671 158.078 114.985C156.758 113.095 154.16 111.472 151.632 112.068C147.808 112.972 146.983 118.282 146.876 118.975C146.04 124.355 149.91 128.452 150.713 129.257C151.352 129.899 155.703 134.268 161.303 133.093C163.917 132.546 165.677 131.025 166.521 130.176C165.981 131.471 164.541 134.428 161.303 136.775C160.465 137.381 157.502 139.399 153.169 139.692C148.473 140.008 145.026 138.105 143.5 137.236C136.326 133.152 134.156 125.588 133.679 123.731C138.127 123.046 141.253 119.196 141.047 115.135C140.797 110.269 135.87 107.286 132.146 107.462C126.946 107.706 123.909 114.111 123.091 117.744C121.3 125.703 126.862 135.053 136.904 141.687C132.943 140.754 130.388 141.381 128.77 142.148C126.877 143.045 125.659 144.425 122.172 145.832C120.964 146.318 120.243 146.609 119.255 146.751C116.055 147.218 113.369 145.676 112.042 144.757C111.008 145.455 110.463 146.601 110.661 147.674C110.812 148.496 111.354 149.014 111.581 149.207C112.221 149.159 113.186 149.118 114.343 149.207C119.293 149.592 122.459 151.943 124.933 153.35C130.227 156.366 136.24 157.281 140.588 157.034C143.36 156.876 150.009 156.499 153.632 151.355C156.114 147.832 155.951 143.816 155.78 142.148C157.339 141.789 159.464 141.129 161.764 139.845C164.131 138.525 165.848 137.017 166.982 135.855C165.818 137.506 164.253 140.087 163.145 143.529C162.429 145.722 161.056 150.173 162.067 155.793ZM188.769 112.972C191.541 116.457 193.523 121.466 194.14 125.71C194.285 126.704 194.491 128.607 195.367 131.081C196.106 133.17 197.008 134.783 197.671 135.837C193.508 135.244 191.146 133.504 189.997 132.462C186.706 129.473 185.689 125.231 184.627 120.799C183.799 117.341 184.092 116.542 183.093 113.586C182.005 110.369 180.515 107.938 179.409 106.374C184.629 108.353 187.432 111.288 188.769 112.972ZM198.44 78.75C201.591 77.9985 206.457 78.1207 213.481 82.7396C211.705 83.6873 208.972 85.1675 205.655 87.0374C197.457 91.6588 197.248 92.1607 195.064 92.7161C189.133 94.2243 183.618 92.3187 180.331 91.1824C177.035 90.0436 174.5 88.5991 172.811 87.4986C176.107 87.8094 181.009 87.7966 186.163 85.6566C192.066 83.2058 193.666 79.8862 198.44 78.75ZM142.576 146.891C146.356 147.745 149.513 147.931 151.477 147.967C150.509 149.207 146.991 153.403 140.886 154.565C131.689 156.318 124.994 149.589 124.464 149.039C127.641 145.816 130.416 144.96 132.291 144.741C135.559 144.362 137.511 145.748 142.576 146.891ZM174.958 129.855C175.753 131.453 177.947 136.393 176.492 142.288C175.183 147.595 171.608 150.853 169.894 152.417C168.505 153.683 167.193 154.58 166.21 155.179C165.609 153.655 164.969 151.342 165.443 148.733C166.095 145.136 168.414 143.49 170.813 139.832C172.197 137.725 173.904 134.495 174.958 129.855Z" fill="#6B0000"/>
<path d="M77.043 117.732C73.349 111.503 74.9514 106.54 72.9006 99.6231C71.6701 95.4781 68.8881 89.8147 61.8515 83.9679C60.9446 86.4977 59.4822 90.1714 57.2479 94.403C54.229 100.12 52.7488 101.266 52.6444 103.918C52.4278 109.37 58.3205 113.714 62.3126 116.657C66.2207 119.538 73.7413 124.116 85.333 125.711C82.8695 124.276 79.4607 121.805 77.043 117.732ZM63.6909 113.128C59.7344 108.04 59.8058 102.53 59.8542 100.851C59.9612 97.0143 61.1738 94.0591 62.0018 92.4107C64.0654 93.5113 66.962 95.4832 68.4473 98.8562C69.981 102.339 68.9084 104.81 69.6753 109.447C70.0829 111.91 71.0969 115.525 73.9731 119.729C72.3936 119.344 67.4181 117.923 63.6909 113.128Z" fill="#6B0000"/>
<path d="M31.0018 103.459C33.4272 102.754 34.4997 104.05 39.4421 104.379C43.0725 104.621 46.8506 104.873 49.4186 102.69C51.2096 101.167 51.1179 99.5564 52.6414 95.4777C53.5382 93.0778 55.0209 89.7455 57.5532 85.9623C57.2985 85.3993 57.0411 84.8362 56.7864 84.2732C55.2094 85.2413 52.8146 86.5559 49.7269 87.6488C42.2445 90.2958 40.1198 88.3061 35.1468 90.5658C29.914 92.9428 25.5066 98.2138 24.4035 104.224C23.8787 107.085 24.2073 109.541 24.5563 111.13C26.5944 105.773 29.058 104.022 31.0018 103.459ZM28.393 101.156C31.2056 95.2968 34.5226 93.5211 36.3748 92.8689C37.0168 92.6422 37.7964 92.4409 43.4343 91.7938C46.4634 91.4473 48.9575 91.1926 50.6466 91.027C50.4147 92.1887 49.9001 94.0255 48.6518 95.9388C47.8671 97.1413 45.6125 100.598 42.0534 101.156C39.3912 101.574 38.5224 99.9768 34.994 99.7755C32.2527 99.6176 29.9522 100.42 28.393 101.156Z" fill="#6B0000"/>
<path d="M53.7144 81.5113C56.0582 80.8998 58.0454 80.5967 59.3931 80.4362C58.881 79.6693 58.3689 78.9025 57.8594 78.1331C56.5397 77.8962 54.4838 77.4784 52.0279 76.7523C44.813 74.6174 43.05 72.4544 38.2146 70.9208C35.9116 70.1896 29.3667 68.4776 22.5594 70.615C17.2731 72.2736 16.4196 74.8161 9.51557 77.5217C5.62788 79.0452 2.22425 79.6795 0.000167847 79.9776C2.00261 80.4514 5.0241 81.2565 8.59587 82.5864C14.0172 84.6041 14.9293 85.6843 19.1864 87.0371C21.8868 87.8956 25.9274 89.144 31.0048 88.879C35.5625 88.6421 39.0375 87.2867 42.8233 85.8091C47.1874 84.1048 48.9809 82.7494 53.7144 81.5113ZM23.7874 84.2729C19.3494 83.1112 16.147 80.9864 14.272 79.5165C16.6999 77.0631 20.6258 74.0442 25.935 73.2238C30.1335 72.5742 33.5142 73.5601 38.6732 75.0658C43.2615 76.4033 46.902 78.0618 49.4165 79.3636C45.0525 82.0717 41.0603 83.3354 38.3675 83.9672C35.0352 84.7493 29.9374 85.8855 23.7874 84.2729Z" fill="#6B0000"/>
<path d="M187.083 16.7461C189.786 17.8594 194.247 20.2185 198.593 25.4946C199.258 25.4946 199.923 25.4946 200.588 25.4946C199.918 22.9903 198.71 19.4185 196.443 15.5181C195.041 13.1081 192.634 9.05479 188.002 5.38875C184.8 2.85386 181.582 0.306231 176.798 0.0183491C176.209 -0.0173177 170.768 -0.272081 166.207 3.08824C164.116 4.62956 163.619 5.89318 160.529 8.15293C158.455 9.66877 156.57 10.6394 155.311 11.2228C156.078 12.3489 156.845 13.4749 157.614 14.5984C160.733 14.4074 165.234 14.2443 170.658 14.4456C178.594 14.7386 182.65 14.922 187.083 16.7461ZM185.702 12.7565C183.646 12.2037 180.538 11.368 176.492 11.3757C171.715 11.3859 169.545 12.568 168.052 11.07C167.15 10.1656 166.857 8.64462 167.285 7.5415C168.09 5.46518 171.361 5.1187 173.117 4.93272C174.22 4.81553 178.375 4.48944 183.399 6.92752C188.527 9.41655 191.49 13.2966 192.914 15.5207C191.24 14.6723 188.792 13.5896 185.702 12.7565Z" fill="#6B0000"/>
</svg>
