<svg width="206" height="284" viewBox="0 0 206 284" fill="none" xmlns="http://www.w3.org/2000/svg">
<path d="M104 281.5C155.086 281.5 203.5 239.086 203.5 188C201.01 168.602 189.57 137.639 189.5 138.5C189.444 139.186 183.308 125.726 177.378 113.159C174.506 107.074 172.463 100.615 171.585 93.944C169.876 80.9658 169.071 70.964 168 55.5C166.134 45.643 163.397 39.3084 159.539 33.2053C153.761 24.0675 145.916 16.205 136.485 10.9204C125.75 4.90547 116.173 2.98958 101.5 3.00004C79.3 4.58734 69.907 9.49811 56 22C43.7409 36.3365 39.6683 45.5454 38.5 64.5C39.0028 83.4317 36.8453 93.1344 30.5 109.5C18.7959 130.219 10.7768 146.265 5.62306 165.847C2.65225 177.134 1.40883 189.002 3.9392 200.396C13.7013 244.355 58.783 281.5 104 281.5Z" fill="#EBEBEB" stroke="#9E9E9E" stroke-width="5" stroke-dasharray="10 10"/>
</svg>
