<svg width="402" height="188" viewBox="0 0 402 188" fill="none" xmlns="http://www.w3.org/2000/svg">
<path d="M51.2747 178C76.9554 178 101.293 156.679 101.293 130.998C100.041 121.247 94.29 105.682 94.255 106.115C94.2338 106.376 92.4601 102.56 90.3059 97.9495C87.4575 91.8531 85.3741 85.3946 84.6442 78.7053C84.1631 74.2963 83.8409 70.0787 83.447 64.3914C83.1787 62.974 82.8745 61.7014 82.5316 60.535C79.4822 50.1631 70.6141 41.5199 60.1052 38.9823C57.1532 38.2695 53.9494 37.9972 50.018 38C38.8582 38.7979 34.1364 41.2666 27.1454 47.5512C20.9829 54.758 18.9356 59.3873 18.3483 68.9156C18.601 78.4324 17.5165 83.3099 14.3268 91.5368C10.1676 98.8994 6.93416 105.088 4.48084 111.561C0.34402 122.475 -0.980517 134.807 3.68994 145.504C11.6767 163.796 31.4498 178 51.2747 178Z" fill="#BCBCBC"/>
<path d="M278.891 169.074C294.863 169.074 310 155.814 310 139.841C309.222 133.776 305.645 124.096 305.623 124.365C305.616 124.452 305.297 123.814 304.797 122.763C301.907 116.686 299.841 110.202 299.28 103.497C299.152 101.96 299.033 100.32 298.901 98.4144C297.346 90.2011 290.262 83.137 281.956 82.1888C280.787 82.0553 279.524 81.999 278.109 82C271.168 82.4963 268.231 84.0317 263.883 87.9405C260.051 92.4228 258.777 95.302 258.412 101.228C258.569 107.147 257.895 110.181 255.911 115.298C254.625 117.573 253.482 119.668 252.47 121.693C247.254 132.135 245.797 145.109 252.57 154.615C258.604 163.083 268.737 169.074 278.891 169.074Z" fill="#BCBCBC"/>
<path d="M359.04 175.246C381.097 175.246 402 156.933 402 134.876C400.925 126.5 395.985 113.132 395.955 113.504C395.939 113.703 394.735 111.139 393.17 107.788C390.321 101.692 388.229 95.2318 387.551 88.5372C387.217 85.2432 386.968 81.9377 386.672 77.6675C386.602 77.2946 386.528 76.9334 386.452 76.5829C384.148 66.0202 375.059 57.0162 364.369 55.4053C362.451 55.1163 360.364 54.9983 357.96 55C348.375 55.6854 344.32 57.8056 338.315 63.2035C333.022 69.3934 331.264 73.3695 330.759 81.5534C330.976 89.7273 330.045 93.9166 327.305 100.983C324.228 106.431 321.74 111.13 319.763 115.882C315.279 126.659 313.935 139.168 319.226 149.572C326.66 164.189 342.83 175.246 359.04 175.246Z" fill="#BCBCBC"/>
<path d="M174.844 187.97C209.324 187.97 242 159.344 242 124.864C240.32 111.771 232.598 90.8732 232.551 91.4541C232.518 91.8631 229.285 84.8289 225.774 77.3388C222.918 71.246 220.854 64.7877 220.045 58.1075C219.164 50.8352 218.67 44.5367 218.04 35.4343C217.236 31.1911 216.194 27.9149 214.869 25.0297C210.356 15.2056 202.015 7.12006 192.007 3.03263C186.48 0.775462 180.858 -0.00546241 173.156 2.8727e-05C158.173 1.07136 151.833 4.38582 142.447 12.8239C134.173 22.5001 131.424 28.7155 130.635 41.5087C130.975 54.2864 129.518 60.8352 125.236 71.881C118.452 83.8894 113.503 93.5723 110.037 104.438C106.49 115.558 105.193 127.63 108.815 138.726C117.695 165.931 146.229 187.97 174.844 187.97Z" fill="#BCBCBC"/>
</svg>
