<svg width="425" height="188" viewBox="0 0 425 188" fill="none" xmlns="http://www.w3.org/2000/svg">
<path d="M121.275 178C146.955 178 171.293 156.679 171.293 130.998C170.041 121.247 164.29 105.682 164.255 106.115C164.234 106.376 162.46 102.56 160.306 97.9495C157.458 91.8531 155.374 85.3946 154.644 78.7053C154.163 74.2963 153.841 70.0787 153.447 64.3914C153.179 62.974 152.875 61.7014 152.532 60.535C149.482 50.1631 140.614 41.5199 130.105 38.9823C127.153 38.2695 123.949 37.9972 120.018 38C108.858 38.7979 104.136 41.2666 97.1454 47.5512C90.9829 54.758 88.9356 59.3873 88.3483 68.9156C88.601 78.4324 87.5165 83.3099 84.3268 91.5368C80.1676 98.8994 76.9342 105.088 74.4808 111.561C70.344 122.475 69.0195 134.807 73.6899 145.504C81.6767 163.796 101.45 178 121.275 178Z" fill="#BCBCBC"/>
<path d="M31.8908 162.074C47.8632 162.074 63 148.814 63 132.841C62.2216 126.776 58.6446 117.096 58.6228 117.365C58.6158 117.452 58.2972 116.814 57.7974 115.763C54.9073 109.686 52.8411 103.202 52.2803 96.4969C52.1517 94.9604 52.0327 93.32 51.9007 91.4144C50.3458 83.2011 43.2616 76.137 34.9564 75.1888C33.7873 75.0553 32.524 74.999 31.1092 75C24.1682 75.4963 21.2315 77.0317 16.8834 80.9405C13.0505 85.4228 11.7772 88.302 11.4119 94.2283C11.5691 100.147 10.8946 103.181 8.91067 108.298C7.6255 110.573 6.48244 112.668 5.47038 114.693C0.254033 125.135 -1.20339 138.109 5.56991 147.615C11.6043 156.083 21.7367 162.074 31.8908 162.074Z" fill="#BCBCBC"/>
<path d="M382.04 172.246C404.097 172.246 425 153.933 425 131.876C423.925 123.5 418.985 110.132 418.955 110.504C418.939 110.703 417.735 108.139 416.17 104.788C413.321 98.6919 411.229 92.2318 410.551 85.5372C410.217 82.2432 409.968 78.9377 409.672 74.6675C409.602 74.2946 409.528 73.9334 409.452 73.5829C407.148 63.0202 398.059 54.0162 387.369 52.4053C385.451 52.1163 383.364 51.9983 380.96 52C371.375 52.6854 367.32 54.8056 361.315 60.2035C356.022 66.3934 354.264 70.3695 353.759 78.5534C353.976 86.7273 353.045 90.9166 350.305 97.9826C347.228 103.431 344.74 108.13 342.763 112.882C338.279 123.659 336.935 136.168 342.226 146.572C349.66 161.189 365.83 172.246 382.04 172.246Z" fill="#BCBCBC"/>
<path d="M255.844 187.97C290.324 187.97 323 159.344 323 124.864C321.32 111.771 313.598 90.8732 313.551 91.4541C313.518 91.8631 310.285 84.8289 306.774 77.3388C303.918 71.246 301.854 64.7877 301.045 58.1075C300.164 50.8352 299.67 44.5367 299.04 35.4343C298.236 31.1911 297.194 27.9149 295.869 25.0297C291.356 15.2056 283.015 7.12006 273.007 3.03263C267.48 0.775462 261.858 -0.00546241 254.156 2.8727e-05C239.173 1.07136 232.833 4.38582 223.447 12.8239C215.173 22.5001 212.424 28.7155 211.635 41.5087C211.975 54.2864 210.518 60.8352 206.236 71.881C199.452 83.8894 194.503 93.5723 191.037 104.438C187.49 115.558 186.193 127.63 189.815 138.726C198.695 165.931 227.229 187.97 255.844 187.97Z" fill="#BCBCBC"/>
</svg>
