<svg width="409" height="188" viewBox="0 0 409 188" fill="none" xmlns="http://www.w3.org/2000/svg">
<path d="M121.275 185C146.955 185 171.293 163.679 171.293 137.998C170.041 128.247 164.29 112.682 164.255 113.115C164.234 113.376 162.46 109.56 160.306 104.95C157.458 98.8531 155.374 92.3946 154.644 85.7053C154.163 81.2963 153.841 77.0787 153.447 71.3914C153.179 69.974 152.875 68.7014 152.532 67.535C149.482 57.1631 140.614 48.5199 130.105 45.9823C127.153 45.2695 123.949 44.9972 120.018 45C108.858 45.7979 104.136 48.2666 97.1454 54.5512C90.9829 61.758 88.9356 66.3873 88.3483 75.9156C88.601 85.4324 87.5165 90.3099 84.3268 98.5368C80.1676 105.899 76.9342 112.088 74.4808 118.561C70.344 129.475 69.0195 141.807 73.6899 152.504C81.6767 170.796 101.45 185 121.275 185Z" fill="#BCBCBC"/>
<path d="M31.8908 169.074C47.8632 169.074 63 155.814 63 139.841C62.2216 133.776 58.6446 124.096 58.6228 124.365C58.6158 124.452 58.2972 123.814 57.7974 122.763C54.9073 116.686 52.8411 110.202 52.2803 103.497C52.1517 101.96 52.0327 100.32 51.9007 98.4144C50.3458 90.2011 43.2616 83.137 34.9564 82.1888C33.7873 82.0553 32.524 81.999 31.1092 82C24.1682 82.4963 21.2315 84.0317 16.8834 87.9405C13.0505 92.4228 11.7772 95.302 11.4119 101.228C11.5691 107.147 10.8946 110.181 8.91067 115.298C7.6255 117.573 6.48244 119.668 5.47038 121.693C0.254033 132.135 -1.20339 145.109 5.56991 154.615C11.6043 163.083 21.7367 169.074 31.8908 169.074Z" fill="#BCBCBC"/>
<path d="M222.332 178.246C244.389 178.246 265.292 159.933 265.292 137.876C264.218 129.5 259.278 116.132 259.248 116.504C259.232 116.703 258.028 114.139 256.462 110.788C253.614 104.692 251.522 98.2318 250.843 91.5372C250.509 88.2432 250.261 84.9377 249.965 80.6675C249.894 80.2946 249.821 79.9334 249.744 79.5829C247.441 69.0202 238.351 60.0162 227.661 58.4053C225.743 58.1163 223.656 57.9983 221.253 58C211.668 58.6854 207.612 60.8056 201.608 66.2035C196.315 72.3934 194.556 76.3695 194.052 84.5534C194.269 92.7273 193.337 96.9166 190.598 103.983C187.52 109.431 185.033 114.13 183.055 118.882C178.571 129.659 177.227 142.168 182.518 152.572C189.952 167.189 206.122 178.246 222.332 178.246Z" fill="#BCBCBC"/>
<path d="M341.136 187.97C375.616 187.97 408.292 159.344 408.292 124.864C406.612 111.771 398.89 90.8732 398.843 91.4541C398.81 91.8631 395.578 84.8289 392.066 77.3388C389.21 71.246 387.147 64.7877 386.337 58.1075C385.456 50.8352 384.962 44.5367 384.332 35.4343C383.529 31.1911 382.487 27.9149 381.161 25.0297C376.648 15.2056 368.308 7.12006 358.3 3.03263C352.773 0.775462 347.151 -0.00546241 339.449 2.8727e-05C324.465 1.07136 318.125 4.38582 308.739 12.8239C300.465 22.5001 297.716 28.7155 296.928 41.5087C297.267 54.2864 295.811 60.8352 291.528 71.881C284.745 83.8894 279.795 93.5723 276.329 104.438C272.782 115.558 271.486 127.63 275.108 138.726C283.988 165.931 312.522 187.97 341.136 187.97Z" fill="#BCBCBC"/>
</svg>
