<svg width="409" height="188" viewBox="0 0 409 188" fill="none" xmlns="http://www.w3.org/2000/svg">
<path d="M194.275 185C219.955 185 244.293 163.679 244.293 137.998C243.041 128.247 237.29 112.682 237.255 113.115C237.234 113.376 235.46 109.56 233.306 104.95C230.458 98.8531 228.374 92.3946 227.644 85.7053C227.163 81.2963 226.841 77.0787 226.447 71.3914C226.179 69.974 225.875 68.7014 225.532 67.535C222.482 57.1631 213.614 48.5199 203.105 45.9823C200.153 45.2695 196.949 44.9972 193.018 45C181.858 45.7979 177.136 48.2666 170.145 54.5512C163.983 61.758 161.936 66.3873 161.348 75.9156C161.601 85.4324 160.516 90.3099 157.327 98.5368C153.168 105.899 149.934 112.088 147.481 118.561C143.344 129.475 142.019 141.807 146.69 152.504C154.677 170.796 174.45 185 194.275 185Z" fill="#BCBCBC"/>
<path d="M377.183 169.074C393.156 169.074 408.292 155.814 408.292 139.841C407.514 133.776 403.937 124.096 403.915 124.365C403.908 124.452 403.59 123.814 403.09 122.763C400.2 116.686 398.134 110.202 397.573 103.497C397.444 101.96 397.325 100.32 397.193 98.4144C395.638 90.2011 388.554 83.137 380.249 82.1888C379.08 82.0553 377.816 81.999 376.402 82C369.461 82.4963 366.524 84.0317 362.176 87.9405C358.343 92.4228 357.07 95.302 356.704 101.228C356.862 107.147 356.187 110.181 354.203 115.298C352.918 117.573 351.775 119.668 350.763 121.693C345.547 132.135 344.089 145.109 350.862 154.615C356.897 163.083 367.029 169.074 377.183 169.074Z" fill="#BCBCBC"/>
<path d="M295.332 178.246C317.389 178.246 338.292 159.933 338.292 137.876C337.218 129.5 332.278 116.132 332.248 116.504C332.232 116.703 331.028 114.139 329.462 110.788C326.614 104.692 324.522 98.2318 323.843 91.5372C323.509 88.2432 323.261 84.9377 322.965 80.6675C322.894 80.2946 322.821 79.9334 322.744 79.5829C320.441 69.0202 311.351 60.0162 300.661 58.4053C298.743 58.1163 296.656 57.9983 294.253 58C284.668 58.6854 280.612 60.8056 274.608 66.2035C269.315 72.3934 267.556 76.3695 267.052 84.5534C267.269 92.7273 266.337 96.9166 263.598 103.983C260.52 109.431 258.033 114.13 256.055 118.882C251.571 129.659 250.227 142.168 255.518 152.572C262.952 167.189 279.122 178.246 295.332 178.246Z" fill="#BCBCBC"/>
<path d="M68.8437 187.97C103.324 187.97 136 159.344 136 124.864C134.32 111.771 126.598 90.8732 126.551 91.4541C126.518 91.8631 123.285 84.8289 119.774 77.3388C116.918 71.246 114.854 64.7877 114.045 58.1075C113.164 50.8352 112.67 44.5367 112.04 35.4343C111.236 31.1911 110.194 27.9149 108.869 25.0297C104.356 15.2056 96.0155 7.12006 86.007 3.03263C80.4802 0.775462 74.8584 -0.00546241 67.1563 2.8727e-05C52.1727 1.07136 45.833 4.38582 36.4467 12.8239C28.1725 22.5001 25.4237 28.7155 24.6352 41.5087C24.9746 54.2864 23.5184 60.8352 19.2357 71.881C12.4521 83.8894 7.50257 93.5723 4.0368 104.438C0.489853 115.558 -0.806904 127.63 2.81503 138.726C11.6955 165.931 40.2294 187.97 68.8437 187.97Z" fill="#BCBCBC"/>
</svg>
