<svg width="206" height="284" viewBox="0 0 206 284" fill="none" xmlns="http://www.w3.org/2000/svg">
<path d="M104 281.5C155.086 281.5 203.5 239.086 203.5 188C201.01 168.602 189.57 137.639 189.5 138.5C189.444 139.186 183.308 125.726 177.378 113.159C174.506 107.074 172.463 100.615 171.585 93.944C169.876 80.9658 169.071 70.964 168 55.5C166.134 45.643 163.397 39.3084 159.539 33.2053C153.761 24.0675 145.916 16.205 136.485 10.9204C125.75 4.90547 116.173 2.98958 101.5 3.00004C79.3 4.58734 69.907 9.49811 56 22C43.7409 36.3365 39.6683 45.5454 38.5 64.5C39.0028 83.4317 36.8453 93.1344 30.5 109.5C18.7959 130.219 10.7768 146.265 5.62306 165.847C2.65225 177.134 1.40883 189.002 3.9392 200.396C13.7013 244.355 58.783 281.5 104 281.5Z" fill="url(#paint0_linear_596_190)" stroke="#410F17" stroke-width="5"/>
<path d="M195.018 203.668C195.018 247.575 145.425 280.168 101.518 280.168C57.6118 280.168 12.0184 240.575 12.0184 196.668C10.9235 157.335 58.7992 120.637 101.518 121.168C149.996 118.119 199.151 157.002 195.018 203.668Z" fill="#EA4C4C" stroke="#410F17" stroke-width="5"/>
<circle cx="104" cy="66" r="50.5" fill="#F6DCC4" stroke="#410F17" stroke-width="5"/>
<circle cx="134" cy="85" r="9" fill="#E2A9A1"/>
<circle cx="75" cy="85" r="9" fill="#E2A9A1"/>
<path d="M90.9209 94.4727C103.662 101.315 107.354 99.9228 117.904 93.5304" stroke="black" stroke-width="5" stroke-linecap="round" stroke-linejoin="round"/>
<circle cx="88" cy="64" r="5" fill="#282222"/>
<circle cx="120" cy="64" r="5" fill="#282222"/>
<path d="M112.915 39.3251C106.847 31.9118 104.529 25.7981 103 16.0005C126.932 15.7779 141.154 25.6854 151.5 53.5005C141.667 54.1387 135.159 53.6655 125.875 49.3665C120.862 47.0455 116.413 43.5998 112.915 39.3251Z" fill="#F8D388" stroke="#410F17" stroke-width="5" stroke-linecap="round" stroke-linejoin="round"/>
<path d="M80.0339 50.0829C71.373 54.1764 64.8799 54.9473 55.0035 54.0602C60.5774 30.7848 73.6311 19.3824 103.123 16.0729C101.363 25.7683 99.3297 31.9683 92.9123 39.937C89.4476 44.2392 85.028 47.7224 80.0339 50.0829Z" fill="#F8D388" stroke="#410F17" stroke-width="5" stroke-linecap="round" stroke-linejoin="round"/>
<path d="M104.5 123C111.63 152.016 121.988 160.02 148 164.5C143.342 133.389 132.805 125.535 104.5 123Z" fill="#376ED0" stroke="#410F17" stroke-width="5" stroke-linecap="round" stroke-linejoin="round"/>
<path d="M62 166.5C91.0159 159.37 99.0202 149.012 103.5 123C72.3891 127.658 64.5354 138.195 62 166.5Z" fill="#376ED0" stroke="#410F17" stroke-width="5" stroke-linecap="round" stroke-linejoin="round"/>
<path d="M152 222C154.492 206.373 159.221 200.614 176 198C173.085 213.285 168.385 219.047 152 222Z" fill="#72A93F" stroke="#410F17" stroke-width="5" stroke-linecap="round" stroke-linejoin="round"/>
<path d="M106 268C108.492 252.373 113.221 246.614 130 244C127.085 259.285 122.385 265.047 106 268Z" fill="#72A93F" stroke="#410F17" stroke-width="5" stroke-linecap="round" stroke-linejoin="round"/>
<path d="M104.808 267.808C89.1808 265.316 83.4218 260.587 80.8081 243.808C96.0927 246.723 101.855 251.423 104.808 267.808Z" fill="#72A93F" stroke="#410F17" stroke-width="5" stroke-linecap="round" stroke-linejoin="round"/>
<path d="M58 222C42.3727 219.508 36.6137 214.779 34 198C49.2846 200.915 55.0471 205.615 58 222Z" fill="#72A93F" stroke="#410F17" stroke-width="5" stroke-linecap="round" stroke-linejoin="round"/>
<path d="M128.798 208.981L130.961 207.52C140.979 200.754 134.25 185.133 122.451 187.766C119.215 188.488 116.001 186.406 115.329 183.147C112.925 171.483 96.1264 171.236 93.6869 183.069L93.5044 183.954C92.8659 187.051 90.0073 189.178 86.8572 188.899L85.7263 188.799C73.1463 187.687 68.7025 204.847 79.9618 210.202C82.8271 211.565 84.1967 214.88 83.1281 217.859L82.8804 218.55C78.9568 229.488 92.4747 238.243 100.852 230.189C103.024 228.1 106.408 227.948 108.759 229.833L110.253 231.032C119.746 238.646 132.8 227.625 126.885 216.989C125.348 214.227 126.18 210.75 128.798 208.981Z" fill="#70DDFF" stroke="#410F17" stroke-width="5"/>
<circle cx="104.5" cy="206.5" r="6" fill="#FCB869" stroke="#DA8828" stroke-width="3"/>
<path d="M105 194V186.5M116.5 202L124.5 198M112.5 216L117 222M92.5 222L97 216M84 199L92.5 203" stroke="#836ED3" stroke-opacity="0.58" stroke-width="5" stroke-linecap="round" stroke-linejoin="round"/>
<defs>
<linearGradient id="paint0_linear_596_190" x1="104" y1="75.5" x2="103.75" y2="281.5" gradientUnits="userSpaceOnUse">
<stop stop-color="#1F6BDE"/>
<stop offset="1" stop-color="#6156D9" stop-opacity="0"/>
</linearGradient>
</defs>
</svg>
