<svg width="1106" height="206" viewBox="0 0 1106 206" fill="none" xmlns="http://www.w3.org/2000/svg">
<path d="M63.8642 23.7241C55.8504 25.8248 49.3281 31.6378 46.2439 39.2061C53.1085 35.337 59.1335 30.0433 63.8642 23.7241Z" fill="#AE8B81"/>
<path d="M77.135 23.7241C81.8662 30.0433 87.8911 35.3374 94.7562 39.2066C91.672 31.6382 85.1492 25.8248 77.135 23.7241Z" fill="#AE8B81"/>
<path d="M96.6335 47.4903C86.1366 42.7779 77.0471 35.1965 70.4998 25.7324C63.9521 35.1969 54.8627 42.7779 44.3666 47.4907C44.336 48.0087 44.3159 48.5297 44.3159 49.0555C44.3159 63.4938 56.0625 75.2399 70.5003 75.2399C84.9381 75.2399 96.6847 63.4933 96.6847 49.0555C96.6842 48.5293 96.6641 48.0087 96.6335 47.4903ZM62.8598 52.9024H59.6393C57.8288 52.9024 56.361 51.4347 56.361 49.6242C56.361 47.8137 57.8288 46.346 59.6393 46.346H62.8598C64.6703 46.346 66.138 47.8137 66.138 49.6242C66.138 51.4347 64.6703 52.9024 62.8598 52.9024ZM81.3609 52.9024H78.5953C76.7849 52.9024 75.3171 51.4347 75.3171 49.6242C75.3171 47.8137 76.7849 46.346 78.5953 46.346H81.3609C83.1713 46.346 84.6391 47.8137 84.6391 49.6242C84.6391 51.4347 83.1713 52.9024 81.3609 52.9024Z" fill="#F6E3DE"/>
<path d="M134.442 144.106C134.442 137.722 133.471 131.437 131.632 125.446C129.384 125.784 127.094 125.994 124.772 126.075C124.772 126.107 124.775 126.138 124.775 126.17C124.741 127.98 123.244 129.429 121.436 129.386C110.356 129.18 99.5064 126.052 90.0598 120.34C82.404 115.712 75.7995 109.482 70.7274 102.144C65.6116 109.545 58.9402 115.816 51.2009 120.457C41.6595 126.179 30.7098 129.269 19.5354 129.394C19.5231 129.394 19.5105 129.394 19.4982 129.394C17.7048 129.394 16.241 127.95 16.2209 126.152C16.2204 126.12 16.2239 126.089 16.2248 126.057C13.9099 125.958 11.6279 125.732 9.38904 125.378C7.53618 131.391 6.55664 137.698 6.55664 144.106C6.55664 166.434 18.3889 187.338 37.4957 198.879H103.504C122.61 187.338 134.442 166.433 134.442 144.106ZM96.2583 161.796C95.3474 163.36 93.3402 163.889 91.7754 162.978C91.7413 162.958 91.7099 162.935 91.6766 162.914C90.4388 164.736 89.0654 166.512 87.6256 168.215C87.6418 168.229 87.6588 168.241 87.675 168.255C89.0099 169.478 89.1004 171.552 87.8769 172.887C81.4564 179.894 74.4594 185.32 72.4675 186.816C71.8844 187.254 71.1912 187.474 70.4984 187.474C69.8056 187.474 69.1128 187.255 68.5292 186.816C61.9347 181.862 40.4186 164.42 40.4186 147.975C40.4186 138.284 48.3034 130.399 57.9952 130.399C62.7534 130.399 67.2389 132.331 70.4979 135.634C73.7569 132.332 78.2424 130.399 83.0007 130.399C92.6925 130.399 100.577 138.284 100.577 147.975C100.579 152.224 99.1252 156.874 96.2583 161.796Z" fill="#FFDFDF"/>
<path d="M19.4623 122.837C39.404 122.615 57.9575 111.708 67.8822 94.3721C68.4662 93.3519 69.5515 92.7225 70.7273 92.7225C71.9031 92.7225 72.9884 93.3519 73.5724 94.3716C83.4114 111.557 101.799 122.462 121.559 122.83C123.338 122.863 124.755 124.308 124.773 126.074C127.095 125.993 129.385 125.783 131.632 125.445C127.638 112.433 119.544 100.807 108.362 92.576C107.627 92.0353 107.151 91.2123 107.048 90.3062C106.945 89.3996 107.225 88.4909 107.819 87.799C115.477 78.8913 119.694 67.5093 119.694 55.7492C119.693 28.6241 97.625 6.55591 70.4996 6.55591C43.3742 6.55591 21.306 28.6241 21.306 55.7496C21.306 67.5093 25.5231 78.8913 33.1806 87.7994C33.7755 88.4913 34.0548 89.4001 33.9521 90.3066C33.849 91.2132 33.373 92.0358 32.6382 92.5765C21.4756 100.793 13.3906 112.394 9.3894 125.378C11.6282 125.733 13.9103 125.958 16.2252 126.056C16.2553 124.29 17.6838 122.856 19.4623 122.837ZM70.4991 16.3133C87.0345 16.3133 100.738 28.6368 102.927 44.58C102.96 44.7369 102.978 44.8969 102.988 45.0582C103.148 46.369 103.24 47.7004 103.24 49.0541C103.24 67.1076 88.5526 81.795 70.4996 81.795C52.4466 81.795 37.7588 67.1072 37.7588 49.0541C37.7588 47.7009 37.851 46.369 38.0114 45.0582C38.021 44.8969 38.0394 44.7365 38.0722 44.5795C40.2616 28.6368 53.9642 16.3133 70.4991 16.3133Z" fill="#EA6C6C"/>
<path d="M133.159 111.77C128.721 103.188 122.466 95.5112 114.955 89.3931C122.261 79.7429 126.25 67.9251 126.25 55.7501C126.25 25.0094 101.24 0 70.4996 0C39.7589 0 14.7494 25.0094 14.7494 55.7501C14.7494 67.9251 18.7384 79.7429 26.0445 89.3931C18.5325 95.5112 12.2777 103.188 7.8398 111.77C2.71088 121.686 0 132.868 0 144.106C0 156.638 3.332 168.946 9.63495 179.7C15.7504 190.133 24.5002 198.878 34.939 204.987C35.4412 205.281 36.013 205.436 36.5952 205.436H104.405C104.987 205.436 105.558 205.281 106.061 204.987C116.499 198.878 125.25 190.133 131.365 179.7C137.668 168.946 141 156.638 141 144.106C140.999 132.868 138.288 121.686 133.159 111.77ZM37.4956 198.88C18.3887 187.339 6.55647 166.433 6.55647 144.106C6.55647 137.699 7.53601 131.391 9.38887 125.379C13.3901 112.394 21.4751 100.794 32.6377 92.577C33.3724 92.0363 33.8489 91.2132 33.9516 90.3071C34.0543 89.4006 33.775 88.4918 33.1801 87.7999C25.5226 78.8923 21.3055 67.5103 21.3055 55.7501C21.3059 28.6247 43.3741 6.55647 70.4996 6.55647C97.625 6.55647 119.693 28.6247 119.693 55.7501C119.693 67.5098 115.476 78.8919 107.819 87.7999C107.224 88.4918 106.944 89.4006 107.047 90.3071C107.15 91.2137 107.626 92.0363 108.361 92.577C119.543 100.808 127.637 112.434 131.632 125.446C133.471 131.438 134.442 137.723 134.442 144.106C134.442 166.434 122.61 187.339 103.503 198.88H37.4956Z" fill="#6B0000"/>
<path d="M37.7581 49.0548C37.7581 67.1082 52.4459 81.7956 70.4989 81.7956C88.5519 81.7956 103.24 67.1078 103.24 49.0548C103.24 47.7015 103.148 46.3697 102.987 45.0588C102.977 44.8975 102.959 44.7376 102.926 44.5806C100.737 28.6375 87.0339 16.314 70.4989 16.314C53.9635 16.314 40.2609 28.6375 38.0715 44.5806C38.0382 44.7376 38.0203 44.898 38.0107 45.0593C37.8503 46.3697 37.7581 47.7015 37.7581 49.0548ZM70.4989 75.2391C56.0607 75.2391 44.3145 63.4926 44.3145 49.0548C44.3145 48.529 44.3346 48.0084 44.3652 47.49C54.8613 42.7772 63.9512 35.1962 70.4989 25.7321C77.0462 35.1966 86.1361 42.7776 96.6326 47.4904C96.6632 48.0084 96.6833 48.5294 96.6833 49.0552C96.6833 63.493 84.9371 75.2391 70.4989 75.2391ZM77.1332 23.7241C85.1474 25.8248 91.6702 31.6382 94.7544 39.2065C87.8893 35.3373 81.8643 30.0432 77.1332 23.7241ZM63.8638 23.7241C59.133 30.0428 53.1081 35.3365 46.2434 39.2061C49.328 31.6382 55.85 25.8252 63.8638 23.7241Z" fill="#6B0000"/>
<path d="M121.558 122.831C101.798 122.463 83.4107 111.558 73.5716 94.3724C72.9876 93.3527 71.9023 92.7233 70.7265 92.7233C69.5507 92.7233 68.4654 93.3527 67.8815 94.3729C57.9567 111.709 39.4032 122.616 19.4615 122.838C17.6834 122.857 16.2549 124.29 16.2239 126.057C16.2235 126.089 16.22 126.12 16.22 126.152C16.2401 127.95 17.7039 129.394 19.4973 129.394C19.5096 129.394 19.5222 129.394 19.5345 129.394C30.7089 129.27 41.6591 126.18 51.2001 120.458C58.9393 115.816 65.6107 109.546 70.7265 102.144C75.7991 109.483 82.4032 115.712 90.0589 120.341C99.5055 126.052 110.355 129.18 121.436 129.387C123.243 129.43 124.74 127.98 124.774 126.17C124.775 126.138 124.772 126.107 124.771 126.076C124.754 124.308 123.337 122.864 121.558 122.831Z" fill="#6B0000"/>
<path d="M81.3592 46.3456H78.5937C76.7832 46.3456 75.3154 47.8134 75.3154 49.6238C75.3154 51.4343 76.7832 52.9021 78.5937 52.9021H81.3592C83.1696 52.9021 84.6374 51.4343 84.6374 49.6238C84.6374 47.8134 83.1696 46.3456 81.3592 46.3456Z" fill="#3E2C3A"/>
<path d="M62.8589 46.3456H59.6383C57.8279 46.3456 56.3601 47.8134 56.3601 49.6238C56.3601 51.4343 57.8279 52.9021 59.6383 52.9021H62.8589C64.6693 52.9021 66.1371 51.4343 66.1371 49.6238C66.1371 47.8134 64.6693 46.3456 62.8589 46.3456Z" fill="#3E2C3A"/>
<path d="M90.5933 158.496C92.8692 154.59 94.0227 151.05 94.0227 147.976C94.0227 141.9 89.0792 136.956 83.0026 136.956C79.0045 136.956 75.3123 139.136 73.3668 142.645C72.7889 143.687 71.6914 144.334 70.4994 144.334C69.3074 144.334 68.2099 143.688 67.632 142.645C65.6865 139.136 61.9943 136.956 57.9962 136.956C51.9197 136.956 46.9761 141.9 46.9761 147.976C46.9761 160.183 64.2673 175.075 70.502 180.048C73.403 177.742 78.3886 173.539 83.0441 168.458C84.2527 167.14 86.2905 167.038 87.6262 168.215C89.066 166.513 90.4394 164.736 91.6773 162.915C90.192 161.977 89.702 160.027 90.5933 158.496Z" fill="#C24747"/>
<path d="M83.0021 130.4C78.2438 130.4 73.7583 132.332 70.4993 135.635C67.2403 132.332 62.7548 130.4 57.9965 130.4C48.3047 130.4 40.4199 138.284 40.4199 147.976C40.4199 164.421 61.9361 181.863 68.5306 186.817C69.1137 187.256 69.8065 187.475 70.4997 187.475C71.1925 187.475 71.8858 187.256 72.4689 186.817C74.4607 185.321 81.4574 179.895 87.8783 172.888C89.1018 171.553 89.0113 169.479 87.6764 168.256C87.6607 168.242 87.6432 168.23 87.627 168.216C86.2912 167.038 84.2535 167.139 83.0449 168.459C78.3894 173.539 73.4038 177.742 70.5028 180.048C64.268 175.075 46.9768 160.183 46.9768 147.977C46.9768 141.9 51.9204 136.956 57.997 136.956C61.9951 136.956 65.6873 139.136 67.6328 142.646C68.2106 143.688 69.3082 144.335 70.5002 144.335C71.6921 144.335 72.7897 143.688 73.3675 142.646C75.3131 139.136 79.0052 136.956 83.0034 136.956C89.0799 136.956 94.0235 141.9 94.0235 147.977C94.0235 151.05 92.8696 154.59 90.594 158.497C89.7028 160.027 90.1928 161.978 91.678 162.915C91.7112 162.936 91.7423 162.96 91.7768 162.98C93.3416 163.89 95.3488 163.362 96.2597 161.797C99.1266 156.875 100.58 152.225 100.58 147.977C100.579 138.284 92.6938 130.4 83.0021 130.4Z" fill="#6B0000"/>
<path d="M449.864 23.7241C441.85 25.8248 435.328 31.6378 432.244 39.2061C439.109 35.337 445.133 30.0433 449.864 23.7241Z" fill="#AE8B81"/>
<path d="M463.135 23.7241C467.866 30.0433 473.891 35.3374 480.756 39.2066C477.672 31.6382 471.149 25.8248 463.135 23.7241Z" fill="#AE8B81"/>
<path d="M482.634 47.4903C472.137 42.7779 463.047 35.1965 456.5 25.7324C449.952 35.1969 440.863 42.7779 430.367 47.4907C430.336 48.0087 430.316 48.5297 430.316 49.0555C430.316 63.4938 442.062 75.2399 456.5 75.2399C470.938 75.2399 482.685 63.4933 482.685 49.0555C482.684 48.5293 482.664 48.0087 482.634 47.4903ZM448.86 52.9024H445.639C443.829 52.9024 442.361 51.4347 442.361 49.6242C442.361 47.8137 443.829 46.346 445.639 46.346H448.86C450.67 46.346 452.138 47.8137 452.138 49.6242C452.138 51.4347 450.67 52.9024 448.86 52.9024ZM467.361 52.9024H464.595C462.785 52.9024 461.317 51.4347 461.317 49.6242C461.317 47.8137 462.785 46.346 464.595 46.346H467.361C469.171 46.346 470.639 47.8137 470.639 49.6242C470.639 51.4347 469.171 52.9024 467.361 52.9024Z" fill="#F6E3DE"/>
<path d="M520.442 144.106C520.442 137.722 519.471 131.437 517.632 125.446C515.384 125.784 513.094 125.994 510.772 126.075C510.772 126.107 510.775 126.138 510.775 126.17C510.741 127.98 509.244 129.429 507.436 129.386C496.356 129.18 485.506 126.052 476.06 120.34C468.404 115.712 461.799 109.482 456.727 102.144C451.612 109.545 444.94 115.816 437.201 120.457C427.66 126.179 416.71 129.269 405.535 129.394C405.523 129.394 405.51 129.394 405.498 129.394C403.705 129.394 402.241 127.95 402.221 126.152C402.22 126.12 402.224 126.089 402.225 126.057C399.91 125.958 397.628 125.732 395.389 125.378C393.536 131.391 392.557 137.698 392.557 144.106C392.557 166.434 404.389 187.338 423.496 198.879H489.504C508.61 187.338 520.442 166.433 520.442 144.106ZM482.258 161.796C481.347 163.36 479.34 163.889 477.775 162.978C477.741 162.958 477.71 162.935 477.677 162.914C476.439 164.736 475.065 166.512 473.626 168.215C473.642 168.229 473.659 168.241 473.675 168.255C475.01 169.478 475.1 171.552 473.877 172.887C467.456 179.894 460.459 185.32 458.467 186.816C457.884 187.254 457.191 187.474 456.498 187.474C455.806 187.474 455.113 187.255 454.529 186.816C447.935 181.862 426.419 164.42 426.419 147.975C426.419 138.284 434.303 130.399 443.995 130.399C448.753 130.399 453.239 132.331 456.498 135.634C459.757 132.332 464.242 130.399 469.001 130.399C478.692 130.399 486.577 138.284 486.577 147.975C486.579 152.224 485.125 156.874 482.258 161.796Z" fill="#FFFBDC"/>
<path d="M405.462 122.837C425.404 122.615 443.958 111.708 453.882 94.3721C454.466 93.3519 455.552 92.7225 456.727 92.7225C457.903 92.7225 458.988 93.3519 459.572 94.3716C469.411 111.557 487.799 122.462 507.559 122.83C509.338 122.863 510.755 124.308 510.773 126.074C513.095 125.993 515.385 125.783 517.632 125.445C513.638 112.433 505.544 100.807 494.362 92.576C493.627 92.0353 493.151 91.2123 493.048 90.3062C492.945 89.3996 493.225 88.4909 493.819 87.799C501.477 78.8913 505.694 67.5093 505.694 55.7492C505.693 28.6241 483.625 6.55591 456.5 6.55591C429.374 6.55591 407.306 28.6241 407.306 55.7496C407.306 67.5093 411.523 78.8913 419.181 87.7994C419.776 88.4913 420.055 89.4001 419.952 90.3066C419.849 91.2132 419.373 92.0358 418.638 92.5765C407.476 100.793 399.391 112.394 395.389 125.378C397.628 125.733 399.91 125.958 402.225 126.056C402.255 124.29 403.684 122.856 405.462 122.837ZM456.499 16.3133C473.035 16.3133 486.738 28.6368 488.927 44.58C488.96 44.7369 488.978 44.8969 488.988 45.0582C489.148 46.369 489.24 47.7004 489.24 49.0541C489.24 67.1076 474.553 81.795 456.5 81.795C438.447 81.795 423.759 67.1072 423.759 49.0541C423.759 47.7009 423.851 46.369 424.011 45.0582C424.021 44.8969 424.039 44.7365 424.072 44.5795C426.262 28.6368 439.964 16.3133 456.499 16.3133Z" fill="#EFE481"/>
<path d="M519.159 111.77C514.721 103.188 508.466 95.5112 500.955 89.3931C508.261 79.7429 512.25 67.9251 512.25 55.7501C512.25 25.0094 487.24 0 456.5 0C425.759 0 400.749 25.0094 400.749 55.7501C400.749 67.9251 404.738 79.7429 412.044 89.3931C404.533 95.5112 398.278 103.188 393.84 111.77C388.711 121.686 386 132.868 386 144.106C386 156.638 389.332 168.946 395.635 179.7C401.75 190.133 410.5 198.878 420.939 204.987C421.441 205.281 422.013 205.436 422.595 205.436H490.405C490.987 205.436 491.558 205.281 492.061 204.987C502.499 198.878 511.25 190.133 517.365 179.7C523.668 168.946 527 156.638 527 144.106C526.999 132.868 524.288 121.686 519.159 111.77ZM423.496 198.88C404.389 187.339 392.556 166.433 392.556 144.106C392.556 137.699 393.536 131.391 395.389 125.379C399.39 112.394 407.475 100.794 418.638 92.577C419.372 92.0363 419.849 91.2132 419.952 90.3071C420.054 89.4006 419.775 88.4918 419.18 87.7999C411.523 78.8923 407.305 67.5103 407.305 55.7501C407.306 28.6247 429.374 6.55647 456.5 6.55647C483.625 6.55647 505.693 28.6247 505.693 55.7501C505.693 67.5098 501.476 78.8919 493.819 87.7999C493.224 88.4918 492.944 89.4006 493.047 90.3071C493.15 91.2137 493.626 92.0363 494.361 92.577C505.543 100.808 513.637 112.434 517.632 125.446C519.471 131.438 520.442 137.723 520.442 144.106C520.442 166.434 508.61 187.339 489.503 198.88H423.496Z" fill="#3E2C3A"/>
<path d="M423.758 49.0548C423.758 67.1082 438.446 81.7956 456.499 81.7956C474.552 81.7956 489.24 67.1078 489.24 49.0548C489.24 47.7015 489.148 46.3697 488.987 45.0588C488.977 44.8975 488.959 44.7376 488.926 44.5806C486.737 28.6375 473.034 16.314 456.499 16.314C439.963 16.314 426.261 28.6375 424.071 44.5806C424.038 44.7376 424.02 44.898 424.011 45.0593C423.85 46.3697 423.758 47.7015 423.758 49.0548ZM456.499 75.2391C442.061 75.2391 430.315 63.4926 430.315 49.0548C430.315 48.529 430.335 48.0084 430.365 47.49C440.861 42.7772 449.951 35.1962 456.499 25.7321C463.046 35.1966 472.136 42.7776 482.633 47.4904C482.663 48.0084 482.683 48.5294 482.683 49.0552C482.683 63.493 470.937 75.2391 456.499 75.2391ZM463.133 23.7241C471.147 25.8248 477.67 31.6382 480.754 39.2065C473.889 35.3373 467.864 30.0432 463.133 23.7241ZM449.864 23.7241C445.133 30.0428 439.108 35.3365 432.243 39.2061C435.328 31.6382 441.85 25.8252 449.864 23.7241Z" fill="#3E2C3A"/>
<path d="M507.558 122.831C487.798 122.463 469.411 111.558 459.572 94.3724C458.988 93.3527 457.902 92.7233 456.727 92.7233C455.551 92.7233 454.465 93.3527 453.881 94.3729C443.957 111.709 425.403 122.616 405.461 122.838C403.683 122.857 402.255 124.29 402.224 126.057C402.223 126.089 402.22 126.12 402.22 126.152C402.24 127.95 403.704 129.394 405.497 129.394C405.51 129.394 405.522 129.394 405.534 129.394C416.709 129.27 427.659 126.18 437.2 120.458C444.939 115.816 451.611 109.546 456.727 102.144C461.799 109.483 468.403 115.712 476.059 120.341C485.506 126.052 496.355 129.18 507.436 129.387C509.243 129.43 510.74 127.98 510.774 126.17C510.775 126.138 510.772 126.107 510.771 126.076C510.754 124.308 509.337 122.864 507.558 122.831Z" fill="#3E2C3A"/>
<path d="M467.359 46.3456H464.594C462.783 46.3456 461.315 47.8134 461.315 49.6238C461.315 51.4343 462.783 52.9021 464.594 52.9021H467.359C469.17 52.9021 470.637 51.4343 470.637 49.6238C470.637 47.8134 469.17 46.3456 467.359 46.3456Z" fill="#3E2C3A"/>
<path d="M448.859 46.3456H445.638C443.828 46.3456 442.36 47.8134 442.36 49.6238C442.36 51.4343 443.828 52.9021 445.638 52.9021H448.859C450.669 52.9021 452.137 51.4343 452.137 49.6238C452.137 47.8134 450.669 46.3456 448.859 46.3456Z" fill="#3E2C3A"/>
<path d="M476.593 158.496C478.869 154.59 480.023 151.05 480.023 147.976C480.023 141.9 475.079 136.956 469.003 136.956C465.004 136.956 461.312 139.136 459.367 142.645C458.789 143.687 457.691 144.334 456.499 144.334C455.307 144.334 454.21 143.688 453.632 142.645C451.687 139.136 447.994 136.956 443.996 136.956C437.92 136.956 432.976 141.9 432.976 147.976C432.976 160.183 450.267 175.075 456.502 180.048C459.403 177.742 464.389 173.539 469.044 168.458C470.253 167.14 472.29 167.038 473.626 168.215C475.066 166.513 476.439 164.736 477.677 162.915C476.192 161.977 475.702 160.027 476.593 158.496Z" fill="#E3CE13"/>
<path d="M469.002 130.4C464.244 130.4 459.758 132.332 456.499 135.635C453.24 132.332 448.755 130.4 443.997 130.4C434.305 130.4 426.42 138.284 426.42 147.976C426.42 164.421 447.936 181.863 454.531 186.817C455.114 187.256 455.806 187.475 456.5 187.475C457.193 187.475 457.886 187.256 458.469 186.817C460.461 185.321 467.457 179.895 473.878 172.888C475.102 171.553 475.011 169.479 473.676 168.256C473.661 168.242 473.643 168.23 473.627 168.216C472.291 167.038 470.253 167.139 469.045 168.459C464.389 173.539 459.404 177.742 456.503 180.048C450.268 175.075 432.977 160.183 432.977 147.977C432.977 141.9 437.92 136.956 443.997 136.956C447.995 136.956 451.687 139.136 453.633 142.646C454.211 143.688 455.308 144.335 456.5 144.335C457.692 144.335 458.79 143.688 459.368 142.646C461.313 139.136 465.005 136.956 469.003 136.956C475.08 136.956 480.023 141.9 480.023 147.977C480.023 151.05 478.87 154.59 476.594 158.497C475.703 160.027 476.193 161.978 477.678 162.915C477.711 162.936 477.742 162.96 477.777 162.98C479.342 163.89 481.349 163.362 482.26 161.797C485.127 156.875 486.58 152.225 486.58 147.977C486.579 138.284 478.694 130.4 469.002 130.4Z" fill="#3E2C3A"/>
<path d="M1028.86 23.7241C1020.85 25.8248 1014.33 31.6378 1011.24 39.2061C1018.11 35.337 1024.13 30.0433 1028.86 23.7241Z" fill="#AE8B81"/>
<path d="M1042.14 23.7241C1046.87 30.0433 1052.89 35.3374 1059.76 39.2066C1056.67 31.6382 1050.15 25.8248 1042.14 23.7241Z" fill="#AE8B81"/>
<path d="M1061.63 47.4903C1051.14 42.7779 1042.05 35.1965 1035.5 25.7324C1028.95 35.1969 1019.86 42.7779 1009.37 47.4907C1009.34 48.0087 1009.32 48.5297 1009.32 49.0555C1009.32 63.4938 1021.06 75.2399 1035.5 75.2399C1049.94 75.2399 1061.68 63.4933 1061.68 49.0555C1061.68 48.5293 1061.66 48.0087 1061.63 47.4903ZM1027.86 52.9024H1024.64C1022.83 52.9024 1021.36 51.4347 1021.36 49.6242C1021.36 47.8137 1022.83 46.346 1024.64 46.346H1027.86C1029.67 46.346 1031.14 47.8137 1031.14 49.6242C1031.14 51.4347 1029.67 52.9024 1027.86 52.9024ZM1046.36 52.9024H1043.6C1041.78 52.9024 1040.32 51.4347 1040.32 49.6242C1040.32 47.8137 1041.78 46.346 1043.6 46.346H1046.36C1048.17 46.346 1049.64 47.8137 1049.64 49.6242C1049.64 51.4347 1048.17 52.9024 1046.36 52.9024Z" fill="#F6E3DE"/>
<path d="M1099.44 144.106C1099.44 137.722 1098.47 131.437 1096.63 125.446C1094.38 125.784 1092.09 125.994 1089.77 126.075C1089.77 126.107 1089.78 126.138 1089.78 126.17C1089.74 127.98 1088.24 129.429 1086.44 129.386C1075.36 129.18 1064.51 126.052 1055.06 120.34C1047.4 115.712 1040.8 109.482 1035.73 102.144C1030.61 109.545 1023.94 115.816 1016.2 120.457C1006.66 126.179 995.71 129.269 984.535 129.394C984.523 129.394 984.51 129.394 984.498 129.394C982.705 129.394 981.241 127.95 981.221 126.152C981.22 126.12 981.224 126.089 981.225 126.057C978.91 125.958 976.628 125.732 974.389 125.378C972.536 131.391 971.557 137.698 971.557 144.106C971.557 166.434 983.389 187.338 1002.5 198.879H1068.5C1087.61 187.338 1099.44 166.433 1099.44 144.106ZM1061.26 161.796C1060.35 163.36 1058.34 163.889 1056.78 162.978C1056.74 162.958 1056.71 162.935 1056.68 162.914C1055.44 164.736 1054.07 166.512 1052.63 168.215C1052.64 168.229 1052.66 168.241 1052.68 168.255C1054.01 169.478 1054.1 171.552 1052.88 172.887C1046.46 179.894 1039.46 185.32 1037.47 186.816C1036.88 187.254 1036.19 187.474 1035.5 187.474C1034.81 187.474 1034.11 187.255 1033.53 186.816C1026.93 181.862 1005.42 164.42 1005.42 147.975C1005.42 138.284 1013.3 130.399 1023 130.399C1027.75 130.399 1032.24 132.331 1035.5 135.634C1038.76 132.332 1043.24 130.399 1048 130.399C1057.69 130.399 1065.58 138.284 1065.58 147.975C1065.58 152.224 1064.13 156.874 1061.26 161.796Z" fill="#FFFBDC"/>
<path d="M984.462 122.837C1004.4 122.615 1022.96 111.708 1032.88 94.3721C1033.47 93.3519 1034.55 92.7225 1035.73 92.7225C1036.9 92.7225 1037.99 93.3519 1038.57 94.3716C1048.41 111.557 1066.8 122.462 1086.56 122.83C1088.34 122.863 1089.76 124.308 1089.77 126.074C1092.09 125.993 1094.38 125.783 1096.63 125.445C1092.64 112.433 1084.54 100.807 1073.36 92.576C1072.63 92.0353 1072.15 91.2123 1072.05 90.3062C1071.95 89.3996 1072.22 88.4909 1072.82 87.799C1080.48 78.8913 1084.69 67.5093 1084.69 55.7492C1084.69 28.6241 1062.62 6.55591 1035.5 6.55591C1008.37 6.55591 986.306 28.6241 986.306 55.7496C986.306 67.5093 990.523 78.8913 998.181 87.7994C998.776 88.4913 999.055 89.4001 998.952 90.3066C998.849 91.2132 998.373 92.0358 997.638 92.5765C986.476 100.793 978.391 112.394 974.389 125.378C976.628 125.733 978.91 125.958 981.225 126.056C981.255 124.29 982.684 122.856 984.462 122.837ZM1035.5 16.3133C1052.03 16.3133 1065.74 28.6368 1067.93 44.58C1067.96 44.7369 1067.98 44.8969 1067.99 45.0582C1068.15 46.369 1068.24 47.7004 1068.24 49.0541C1068.24 67.1076 1053.55 81.795 1035.5 81.795C1017.45 81.795 1002.76 67.1072 1002.76 49.0541C1002.76 47.7009 1002.85 46.369 1003.01 45.0582C1003.02 44.8969 1003.04 44.7365 1003.07 44.5795C1005.26 28.6368 1018.96 16.3133 1035.5 16.3133Z" fill="#EFE481"/>
<path d="M1098.16 111.77C1093.72 103.188 1087.47 95.5112 1079.95 89.3931C1087.26 79.7429 1091.25 67.9251 1091.25 55.7501C1091.25 25.0094 1066.24 0 1035.5 0C1004.76 0 979.749 25.0094 979.749 55.7501C979.749 67.9251 983.738 79.7429 991.044 89.3931C983.533 95.5112 977.278 103.188 972.84 111.77C967.711 121.686 965 132.868 965 144.106C965 156.638 968.332 168.946 974.635 179.7C980.75 190.133 989.5 198.878 999.939 204.987C1000.44 205.281 1001.01 205.436 1001.6 205.436H1069.4C1069.99 205.436 1070.56 205.281 1071.06 204.987C1081.5 198.878 1090.25 190.133 1096.37 179.7C1102.67 168.946 1106 156.638 1106 144.106C1106 132.868 1103.29 121.686 1098.16 111.77ZM1002.5 198.88C983.389 187.339 971.556 166.433 971.556 144.106C971.556 137.699 972.536 131.391 974.389 125.379C978.39 112.394 986.475 100.794 997.638 92.577C998.372 92.0363 998.849 91.2132 998.952 90.3071C999.054 89.4006 998.775 88.4918 998.18 87.7999C990.523 78.8923 986.305 67.5103 986.305 55.7501C986.306 28.6247 1008.37 6.55647 1035.5 6.55647C1062.62 6.55647 1084.69 28.6247 1084.69 55.7501C1084.69 67.5098 1080.48 78.8919 1072.82 87.7999C1072.22 88.4918 1071.94 89.4006 1072.05 90.3071C1072.15 91.2137 1072.63 92.0363 1073.36 92.577C1084.54 100.808 1092.64 112.434 1096.63 125.446C1098.47 131.438 1099.44 137.723 1099.44 144.106C1099.44 166.434 1087.61 187.339 1068.5 198.88H1002.5Z" fill="#3E2C3A"/>
<path d="M1002.76 49.0548C1002.76 67.1082 1017.45 81.7956 1035.5 81.7956C1053.55 81.7956 1068.24 67.1078 1068.24 49.0548C1068.24 47.7015 1068.15 46.3697 1067.99 45.0588C1067.98 44.8975 1067.96 44.7376 1067.93 44.5806C1065.74 28.6375 1052.03 16.314 1035.5 16.314C1018.96 16.314 1005.26 28.6375 1003.07 44.5806C1003.04 44.7376 1003.02 44.898 1003.01 45.0593C1002.85 46.3697 1002.76 47.7015 1002.76 49.0548ZM1035.5 75.2391C1021.06 75.2391 1009.31 63.4926 1009.31 49.0548C1009.31 48.529 1009.33 48.0084 1009.37 47.49C1019.86 42.7772 1028.95 35.1962 1035.5 25.7321C1042.05 35.1966 1051.14 42.7776 1061.63 47.4904C1061.66 48.0084 1061.68 48.5294 1061.68 49.0552C1061.68 63.493 1049.94 75.2391 1035.5 75.2391ZM1042.13 23.7241C1050.15 25.8248 1056.67 31.6382 1059.75 39.2065C1052.89 35.3373 1046.86 30.0432 1042.13 23.7241ZM1028.86 23.7241C1024.13 30.0428 1018.11 35.3365 1011.24 39.2061C1014.33 31.6382 1020.85 25.8252 1028.86 23.7241Z" fill="#3E2C3A"/>
<path d="M1086.56 122.831C1066.8 122.463 1048.41 111.558 1038.57 94.3724C1037.99 93.3527 1036.9 92.7233 1035.73 92.7233C1034.55 92.7233 1033.47 93.3527 1032.88 94.3729C1022.96 111.709 1004.4 122.616 984.461 122.838C982.683 122.857 981.255 124.29 981.224 126.057C981.223 126.089 981.22 126.12 981.22 126.152C981.24 127.95 982.704 129.394 984.497 129.394C984.51 129.394 984.522 129.394 984.534 129.394C995.709 129.27 1006.66 126.18 1016.2 120.458C1023.94 115.816 1030.61 109.546 1035.73 102.144C1040.8 109.483 1047.4 115.712 1055.06 120.341C1064.51 126.052 1075.36 129.18 1086.44 129.387C1088.24 129.43 1089.74 127.98 1089.77 126.17C1089.77 126.138 1089.77 126.107 1089.77 126.076C1089.75 124.308 1088.34 122.864 1086.56 122.831Z" fill="#3E2C3A"/>
<path d="M1046.36 46.3456H1043.59C1041.78 46.3456 1040.32 47.8134 1040.32 49.6238C1040.32 51.4343 1041.78 52.9021 1043.59 52.9021H1046.36C1048.17 52.9021 1049.64 51.4343 1049.64 49.6238C1049.64 47.8134 1048.17 46.3456 1046.36 46.3456Z" fill="#3E2C3A"/>
<path d="M1027.86 46.3456H1024.64C1022.83 46.3456 1021.36 47.8134 1021.36 49.6238C1021.36 51.4343 1022.83 52.9021 1024.64 52.9021H1027.86C1029.67 52.9021 1031.14 51.4343 1031.14 49.6238C1031.14 47.8134 1029.67 46.3456 1027.86 46.3456Z" fill="#3E2C3A"/>
<path d="M1055.59 158.496C1057.87 154.59 1059.02 151.05 1059.02 147.976C1059.02 141.9 1054.08 136.956 1048 136.956C1044 136.956 1040.31 139.136 1038.37 142.645C1037.79 143.687 1036.69 144.334 1035.5 144.334C1034.31 144.334 1033.21 143.688 1032.63 142.645C1030.69 139.136 1026.99 136.956 1023 136.956C1016.92 136.956 1011.98 141.9 1011.98 147.976C1011.98 160.183 1029.27 175.075 1035.5 180.048C1038.4 177.742 1043.39 173.539 1048.04 168.458C1049.25 167.14 1051.29 167.038 1052.63 168.215C1054.07 166.513 1055.44 164.736 1056.68 162.915C1055.19 161.977 1054.7 160.027 1055.59 158.496Z" fill="#E3CE13"/>
<path d="M1048 130.4C1043.24 130.4 1038.76 132.332 1035.5 135.635C1032.24 132.332 1027.75 130.4 1023 130.4C1013.3 130.4 1005.42 138.284 1005.42 147.976C1005.42 164.421 1026.94 181.863 1033.53 186.817C1034.11 187.256 1034.81 187.475 1035.5 187.475C1036.19 187.475 1036.89 187.256 1037.47 186.817C1039.46 185.321 1046.46 179.895 1052.88 172.888C1054.1 171.553 1054.01 169.479 1052.68 168.256C1052.66 168.242 1052.64 168.23 1052.63 168.216C1051.29 167.038 1049.25 167.139 1048.04 168.459C1043.39 173.539 1038.4 177.742 1035.5 180.048C1029.27 175.075 1011.98 160.183 1011.98 147.977C1011.98 141.9 1016.92 136.956 1023 136.956C1027 136.956 1030.69 139.136 1032.63 142.646C1033.21 143.688 1034.31 144.335 1035.5 144.335C1036.69 144.335 1037.79 143.688 1038.37 142.646C1040.31 139.136 1044.01 136.956 1048 136.956C1054.08 136.956 1059.02 141.9 1059.02 147.977C1059.02 151.05 1057.87 154.59 1055.59 158.497C1054.7 160.027 1055.19 161.978 1056.68 162.915C1056.71 162.936 1056.74 162.96 1056.78 162.98C1058.34 163.89 1060.35 163.362 1061.26 161.797C1064.13 156.875 1065.58 152.225 1065.58 147.977C1065.58 138.284 1057.69 130.4 1048 130.4Z" fill="#3E2C3A"/>
<path d="M642.864 23.7241C634.85 25.8248 628.328 31.6378 625.244 39.2061C632.109 35.337 638.133 30.0433 642.864 23.7241Z" fill="#AE8B81"/>
<path d="M656.135 23.7241C660.866 30.0433 666.891 35.3374 673.756 39.2066C670.672 31.6382 664.149 25.8248 656.135 23.7241Z" fill="#AE8B81"/>
<path d="M675.634 47.4903C665.137 42.7779 656.047 35.1965 649.5 25.7324C642.952 35.1969 633.863 42.7779 623.367 47.4907C623.336 48.0087 623.316 48.5297 623.316 49.0555C623.316 63.4938 635.062 75.2399 649.5 75.2399C663.938 75.2399 675.685 63.4933 675.685 49.0555C675.684 48.5293 675.664 48.0087 675.634 47.4903ZM641.86 52.9024H638.639C636.829 52.9024 635.361 51.4347 635.361 49.6242C635.361 47.8137 636.829 46.346 638.639 46.346H641.86C643.67 46.346 645.138 47.8137 645.138 49.6242C645.138 51.4347 643.67 52.9024 641.86 52.9024ZM660.361 52.9024H657.595C655.785 52.9024 654.317 51.4347 654.317 49.6242C654.317 47.8137 655.785 46.346 657.595 46.346H660.361C662.171 46.346 663.639 47.8137 663.639 49.6242C663.639 51.4347 662.171 52.9024 660.361 52.9024Z" fill="#F6E3DE"/>
<path d="M713.442 144.106C713.442 137.722 712.471 131.437 710.632 125.446C708.384 125.784 706.094 125.994 703.772 126.075C703.772 126.107 703.775 126.138 703.775 126.17C703.741 127.98 702.244 129.429 700.436 129.386C689.356 129.18 678.506 126.052 669.06 120.34C661.404 115.712 654.799 109.482 649.727 102.144C644.612 109.545 637.94 115.816 630.201 120.457C620.66 126.179 609.71 129.269 598.535 129.394C598.523 129.394 598.51 129.394 598.498 129.394C596.705 129.394 595.241 127.95 595.221 126.152C595.22 126.12 595.224 126.089 595.225 126.057C592.91 125.958 590.628 125.732 588.389 125.378C586.536 131.391 585.557 137.698 585.557 144.106C585.557 166.434 597.389 187.338 616.496 198.879H682.504C701.61 187.338 713.442 166.433 713.442 144.106ZM675.258 161.796C674.347 163.36 672.34 163.889 670.775 162.978C670.741 162.958 670.71 162.935 670.677 162.914C669.439 164.736 668.065 166.512 666.626 168.215C666.642 168.229 666.659 168.241 666.675 168.255C668.01 169.478 668.1 171.552 666.877 172.887C660.456 179.894 653.459 185.32 651.467 186.816C650.884 187.254 650.191 187.474 649.498 187.474C648.806 187.474 648.113 187.255 647.529 186.816C640.935 181.862 619.419 164.42 619.419 147.975C619.419 138.284 627.303 130.399 636.995 130.399C641.753 130.399 646.239 132.331 649.498 135.634C652.757 132.332 657.242 130.399 662.001 130.399C671.692 130.399 679.577 138.284 679.577 147.975C679.579 152.224 678.125 156.874 675.258 161.796Z" fill="#FFDFDF"/>
<path d="M598.462 122.837C618.404 122.615 636.958 111.708 646.882 94.3721C647.466 93.3519 648.552 92.7225 649.727 92.7225C650.903 92.7225 651.988 93.3519 652.572 94.3716C662.411 111.557 680.799 122.462 700.559 122.83C702.338 122.863 703.755 124.308 703.773 126.074C706.095 125.993 708.385 125.783 710.632 125.445C706.638 112.433 698.544 100.807 687.362 92.576C686.627 92.0353 686.151 91.2123 686.048 90.3062C685.945 89.3996 686.225 88.4909 686.819 87.799C694.477 78.8913 698.694 67.5093 698.694 55.7492C698.693 28.6241 676.625 6.55591 649.5 6.55591C622.374 6.55591 600.306 28.6241 600.306 55.7496C600.306 67.5093 604.523 78.8913 612.181 87.7994C612.776 88.4913 613.055 89.4001 612.952 90.3066C612.849 91.2132 612.373 92.0358 611.638 92.5765C600.476 100.793 592.391 112.394 588.389 125.378C590.628 125.733 592.91 125.958 595.225 126.056C595.255 124.29 596.684 122.856 598.462 122.837ZM649.499 16.3133C666.035 16.3133 679.738 28.6368 681.927 44.58C681.96 44.7369 681.978 44.8969 681.988 45.0582C682.148 46.369 682.24 47.7004 682.24 49.0541C682.24 67.1076 667.553 81.795 649.5 81.795C631.447 81.795 616.759 67.1072 616.759 49.0541C616.759 47.7009 616.851 46.369 617.011 45.0582C617.021 44.8969 617.039 44.7365 617.072 44.5795C619.262 28.6368 632.964 16.3133 649.499 16.3133Z" fill="#EA6C6C"/>
<path d="M712.159 111.77C707.721 103.188 701.466 95.5112 693.955 89.3931C701.261 79.7429 705.25 67.9251 705.25 55.7501C705.25 25.0094 680.24 0 649.5 0C618.759 0 593.749 25.0094 593.749 55.7501C593.749 67.9251 597.738 79.7429 605.044 89.3931C597.533 95.5112 591.278 103.188 586.84 111.77C581.711 121.686 579 132.868 579 144.106C579 156.638 582.332 168.946 588.635 179.7C594.75 190.133 603.5 198.878 613.939 204.987C614.441 205.281 615.013 205.436 615.595 205.436H683.405C683.987 205.436 684.558 205.281 685.061 204.987C695.499 198.878 704.25 190.133 710.365 179.7C716.668 168.946 720 156.638 720 144.106C719.999 132.868 717.288 121.686 712.159 111.77ZM616.496 198.88C597.389 187.339 585.556 166.433 585.556 144.106C585.556 137.699 586.536 131.391 588.389 125.379C592.39 112.394 600.475 100.794 611.638 92.577C612.372 92.0363 612.849 91.2132 612.952 90.3071C613.054 89.4006 612.775 88.4918 612.18 87.7999C604.523 78.8923 600.305 67.5103 600.305 55.7501C600.306 28.6247 622.374 6.55647 649.5 6.55647C676.625 6.55647 698.693 28.6247 698.693 55.7501C698.693 67.5098 694.476 78.8919 686.819 87.7999C686.224 88.4918 685.944 89.4006 686.047 90.3071C686.15 91.2137 686.626 92.0363 687.361 92.577C698.543 100.808 706.637 112.434 710.632 125.446C712.471 131.438 713.442 137.723 713.442 144.106C713.442 166.434 701.61 187.339 682.503 198.88H616.496Z" fill="#6B0000"/>
<path d="M616.758 49.0548C616.758 67.1082 631.446 81.7956 649.499 81.7956C667.552 81.7956 682.24 67.1078 682.24 49.0548C682.24 47.7015 682.148 46.3697 681.987 45.0588C681.977 44.8975 681.959 44.7376 681.926 44.5806C679.737 28.6375 666.034 16.314 649.499 16.314C632.963 16.314 619.261 28.6375 617.071 44.5806C617.038 44.7376 617.02 44.898 617.011 45.0593C616.85 46.3697 616.758 47.7015 616.758 49.0548ZM649.499 75.2391C635.061 75.2391 623.315 63.4926 623.315 49.0548C623.315 48.529 623.335 48.0084 623.365 47.49C633.861 42.7772 642.951 35.1962 649.499 25.7321C656.046 35.1966 665.136 42.7776 675.633 47.4904C675.663 48.0084 675.683 48.5294 675.683 49.0552C675.683 63.493 663.937 75.2391 649.499 75.2391ZM656.133 23.7241C664.147 25.8248 670.67 31.6382 673.754 39.2065C666.889 35.3373 660.864 30.0432 656.133 23.7241ZM642.864 23.7241C638.133 30.0428 632.108 35.3365 625.243 39.2061C628.328 31.6382 634.85 25.8252 642.864 23.7241Z" fill="#6B0000"/>
<path d="M700.558 122.831C680.798 122.463 662.411 111.558 652.572 94.3724C651.988 93.3527 650.902 92.7233 649.727 92.7233C648.551 92.7233 647.465 93.3527 646.881 94.3729C636.957 111.709 618.403 122.616 598.461 122.838C596.683 122.857 595.255 124.29 595.224 126.057C595.223 126.089 595.22 126.12 595.22 126.152C595.24 127.95 596.704 129.394 598.497 129.394C598.51 129.394 598.522 129.394 598.534 129.394C609.709 129.27 620.659 126.18 630.2 120.458C637.939 115.816 644.611 109.546 649.727 102.144C654.799 109.483 661.403 115.712 669.059 120.341C678.506 126.052 689.355 129.18 700.436 129.387C702.243 129.43 703.74 127.98 703.774 126.17C703.775 126.138 703.772 126.107 703.771 126.076C703.754 124.308 702.337 122.864 700.558 122.831Z" fill="#6B0000"/>
<path d="M660.359 46.3456H657.594C655.783 46.3456 654.315 47.8134 654.315 49.6238C654.315 51.4343 655.783 52.9021 657.594 52.9021H660.359C662.17 52.9021 663.637 51.4343 663.637 49.6238C663.637 47.8134 662.17 46.3456 660.359 46.3456Z" fill="#3E2C3A"/>
<path d="M641.859 46.3456H638.638C636.828 46.3456 635.36 47.8134 635.36 49.6238C635.36 51.4343 636.828 52.9021 638.638 52.9021H641.859C643.669 52.9021 645.137 51.4343 645.137 49.6238C645.137 47.8134 643.669 46.3456 641.859 46.3456Z" fill="#3E2C3A"/>
<path d="M669.593 158.496C671.869 154.59 673.023 151.05 673.023 147.976C673.023 141.9 668.079 136.956 662.003 136.956C658.004 136.956 654.312 139.136 652.367 142.645C651.789 143.687 650.691 144.334 649.499 144.334C648.307 144.334 647.21 143.688 646.632 142.645C644.687 139.136 640.994 136.956 636.996 136.956C630.92 136.956 625.976 141.9 625.976 147.976C625.976 160.183 643.267 175.075 649.502 180.048C652.403 177.742 657.389 173.539 662.044 168.458C663.253 167.14 665.29 167.038 666.626 168.215C668.066 166.513 669.439 164.736 670.677 162.915C669.192 161.977 668.702 160.027 669.593 158.496Z" fill="#C24747"/>
<path d="M662.002 130.4C657.244 130.4 652.758 132.332 649.499 135.635C646.24 132.332 641.755 130.4 636.997 130.4C627.305 130.4 619.42 138.284 619.42 147.976C619.42 164.421 640.936 181.863 647.531 186.817C648.114 187.256 648.806 187.475 649.5 187.475C650.193 187.475 650.886 187.256 651.469 186.817C653.461 185.321 660.457 179.895 666.878 172.888C668.102 171.553 668.011 169.479 666.676 168.256C666.661 168.242 666.643 168.23 666.627 168.216C665.291 167.038 663.253 167.139 662.045 168.459C657.389 173.539 652.404 177.742 649.503 180.048C643.268 175.075 625.977 160.183 625.977 147.977C625.977 141.9 630.92 136.956 636.997 136.956C640.995 136.956 644.687 139.136 646.633 142.646C647.211 143.688 648.308 144.335 649.5 144.335C650.692 144.335 651.79 143.688 652.368 142.646C654.313 139.136 658.005 136.956 662.003 136.956C668.08 136.956 673.023 141.9 673.023 147.977C673.023 151.05 671.87 154.59 669.594 158.497C668.703 160.027 669.193 161.978 670.678 162.915C670.711 162.936 670.742 162.96 670.777 162.98C672.342 163.89 674.349 163.362 675.26 161.797C678.127 156.875 679.58 152.225 679.58 147.977C679.579 138.284 671.694 130.4 662.002 130.4Z" fill="#6B0000"/>
<path d="M835.864 23.7241C827.85 25.8248 821.328 31.6378 818.244 39.2061C825.109 35.337 831.133 30.0433 835.864 23.7241Z" fill="#AE8B81"/>
<path d="M849.135 23.7241C853.866 30.0433 859.891 35.3374 866.756 39.2066C863.672 31.6382 857.149 25.8248 849.135 23.7241Z" fill="#AE8B81"/>
<path d="M868.634 47.4903C858.137 42.7779 849.047 35.1965 842.5 25.7324C835.952 35.1969 826.863 42.7779 816.367 47.4907C816.336 48.0087 816.316 48.5297 816.316 49.0555C816.316 63.4938 828.062 75.2399 842.5 75.2399C856.938 75.2399 868.685 63.4933 868.685 49.0555C868.684 48.5293 868.664 48.0087 868.634 47.4903ZM834.86 52.9024H831.639C829.829 52.9024 828.361 51.4347 828.361 49.6242C828.361 47.8137 829.829 46.346 831.639 46.346H834.86C836.67 46.346 838.138 47.8137 838.138 49.6242C838.138 51.4347 836.67 52.9024 834.86 52.9024ZM853.361 52.9024H850.595C848.785 52.9024 847.317 51.4347 847.317 49.6242C847.317 47.8137 848.785 46.346 850.595 46.346H853.361C855.171 46.346 856.639 47.8137 856.639 49.6242C856.639 51.4347 855.171 52.9024 853.361 52.9024Z" fill="#F6E3DE"/>
<path d="M906.442 144.106C906.442 137.722 905.471 131.437 903.632 125.446C901.384 125.784 899.094 125.994 896.772 126.075C896.772 126.107 896.775 126.138 896.775 126.17C896.741 127.98 895.244 129.429 893.436 129.386C882.356 129.18 871.506 126.052 862.06 120.34C854.404 115.712 847.799 109.482 842.727 102.144C837.612 109.545 830.94 115.816 823.201 120.457C813.66 126.179 802.71 129.269 791.535 129.394C791.523 129.394 791.51 129.394 791.498 129.394C789.705 129.394 788.241 127.95 788.221 126.152C788.22 126.12 788.224 126.089 788.225 126.057C785.91 125.958 783.628 125.732 781.389 125.378C779.536 131.391 778.557 137.698 778.557 144.106C778.557 166.434 790.389 187.338 809.496 198.879H875.504C894.61 187.338 906.442 166.433 906.442 144.106ZM868.258 161.796C867.347 163.36 865.34 163.889 863.775 162.978C863.741 162.958 863.71 162.935 863.677 162.914C862.439 164.736 861.065 166.512 859.626 168.215C859.642 168.229 859.659 168.241 859.675 168.255C861.01 169.478 861.1 171.552 859.877 172.887C853.456 179.894 846.459 185.32 844.467 186.816C843.884 187.254 843.191 187.474 842.498 187.474C841.806 187.474 841.113 187.255 840.529 186.816C833.935 181.862 812.419 164.42 812.419 147.975C812.419 138.284 820.303 130.399 829.995 130.399C834.753 130.399 839.239 132.331 842.498 135.634C845.757 132.332 850.242 130.399 855.001 130.399C864.692 130.399 872.577 138.284 872.577 147.975C872.579 152.224 871.125 156.874 868.258 161.796Z" fill="#EDF8FF"/>
<path d="M791.462 122.837C811.404 122.615 829.958 111.708 839.882 94.3721C840.466 93.3519 841.552 92.7225 842.727 92.7225C843.903 92.7225 844.988 93.3519 845.572 94.3716C855.411 111.557 873.799 122.462 893.559 122.83C895.338 122.863 896.755 124.308 896.773 126.074C899.095 125.993 901.385 125.783 903.632 125.445C899.638 112.433 891.544 100.807 880.362 92.576C879.627 92.0353 879.151 91.2123 879.048 90.3062C878.945 89.3996 879.225 88.4909 879.819 87.799C887.477 78.8913 891.694 67.5093 891.694 55.7492C891.693 28.6241 869.625 6.55591 842.5 6.55591C815.374 6.55591 793.306 28.6241 793.306 55.7496C793.306 67.5093 797.523 78.8913 805.181 87.7994C805.776 88.4913 806.055 89.4001 805.952 90.3066C805.849 91.2132 805.373 92.0358 804.638 92.5765C793.476 100.793 785.391 112.394 781.389 125.378C783.628 125.733 785.91 125.958 788.225 126.056C788.255 124.29 789.684 122.856 791.462 122.837ZM842.499 16.3133C859.035 16.3133 872.738 28.6368 874.927 44.58C874.96 44.7369 874.978 44.8969 874.988 45.0582C875.148 46.369 875.24 47.7004 875.24 49.0541C875.24 67.1076 860.553 81.795 842.5 81.795C824.447 81.795 809.759 67.1072 809.759 49.0541C809.759 47.7009 809.851 46.369 810.011 45.0582C810.021 44.8969 810.039 44.7365 810.072 44.5795C812.262 28.6368 825.964 16.3133 842.499 16.3133Z" fill="#82CCF6"/>
<path d="M905.159 111.77C900.721 103.188 894.466 95.5112 886.955 89.3931C894.261 79.7429 898.25 67.9251 898.25 55.7501C898.25 25.0094 873.24 0 842.5 0C811.759 0 786.749 25.0094 786.749 55.7501C786.749 67.9251 790.738 79.7429 798.044 89.3931C790.533 95.5112 784.278 103.188 779.84 111.77C774.711 121.686 772 132.868 772 144.106C772 156.638 775.332 168.946 781.635 179.7C787.75 190.133 796.5 198.878 806.939 204.987C807.441 205.281 808.013 205.436 808.595 205.436H876.405C876.987 205.436 877.558 205.281 878.061 204.987C888.499 198.878 897.25 190.133 903.365 179.7C909.668 168.946 913 156.638 913 144.106C912.999 132.868 910.288 121.686 905.159 111.77ZM809.496 198.88C790.389 187.339 778.556 166.433 778.556 144.106C778.556 137.699 779.536 131.391 781.389 125.379C785.39 112.394 793.475 100.794 804.638 92.577C805.372 92.0363 805.849 91.2132 805.952 90.3071C806.054 89.4006 805.775 88.4918 805.18 87.7999C797.523 78.8923 793.305 67.5103 793.305 55.7501C793.306 28.6247 815.374 6.55647 842.5 6.55647C869.625 6.55647 891.693 28.6247 891.693 55.7501C891.693 67.5098 887.476 78.8919 879.819 87.7999C879.224 88.4918 878.944 89.4006 879.047 90.3071C879.15 91.2137 879.626 92.0363 880.361 92.577C891.543 100.808 899.637 112.434 903.632 125.446C905.471 131.438 906.442 137.723 906.442 144.106C906.442 166.434 894.61 187.339 875.503 198.88H809.496Z" fill="#032F47"/>
<path d="M809.758 49.0548C809.758 67.1082 824.446 81.7956 842.499 81.7956C860.552 81.7956 875.24 67.1078 875.24 49.0548C875.24 47.7015 875.148 46.3697 874.987 45.0588C874.977 44.8975 874.959 44.7376 874.926 44.5806C872.737 28.6375 859.034 16.314 842.499 16.314C825.963 16.314 812.261 28.6375 810.071 44.5806C810.038 44.7376 810.02 44.898 810.011 45.0593C809.85 46.3697 809.758 47.7015 809.758 49.0548ZM842.499 75.2391C828.061 75.2391 816.315 63.4926 816.315 49.0548C816.315 48.529 816.335 48.0084 816.365 47.49C826.861 42.7772 835.951 35.1962 842.499 25.7321C849.046 35.1966 858.136 42.7776 868.633 47.4904C868.663 48.0084 868.683 48.5294 868.683 49.0552C868.683 63.493 856.937 75.2391 842.499 75.2391ZM849.133 23.7241C857.147 25.8248 863.67 31.6382 866.754 39.2065C859.889 35.3373 853.864 30.0432 849.133 23.7241ZM835.864 23.7241C831.133 30.0428 825.108 35.3365 818.243 39.2061C821.328 31.6382 827.85 25.8252 835.864 23.7241Z" fill="#032F47"/>
<path d="M893.558 122.831C873.798 122.463 855.411 111.558 845.572 94.3724C844.988 93.3527 843.902 92.7233 842.727 92.7233C841.551 92.7233 840.465 93.3527 839.881 94.3729C829.957 111.709 811.403 122.616 791.461 122.838C789.683 122.857 788.255 124.29 788.224 126.057C788.223 126.089 788.22 126.12 788.22 126.152C788.24 127.95 789.704 129.394 791.497 129.394C791.51 129.394 791.522 129.394 791.534 129.394C802.709 129.27 813.659 126.18 823.2 120.458C830.939 115.816 837.611 109.546 842.727 102.144C847.799 109.483 854.403 115.712 862.059 120.341C871.506 126.052 882.355 129.18 893.436 129.387C895.243 129.43 896.74 127.98 896.774 126.17C896.775 126.138 896.772 126.107 896.771 126.076C896.754 124.308 895.337 122.864 893.558 122.831Z" fill="#032F47"/>
<path d="M853.359 46.3456H850.594C848.783 46.3456 847.315 47.8134 847.315 49.6238C847.315 51.4343 848.783 52.9021 850.594 52.9021H853.359C855.17 52.9021 856.637 51.4343 856.637 49.6238C856.637 47.8134 855.17 46.3456 853.359 46.3456Z" fill="#3E2C3A"/>
<path d="M834.859 46.3456H831.638C829.828 46.3456 828.36 47.8134 828.36 49.6238C828.36 51.4343 829.828 52.9021 831.638 52.9021H834.859C836.669 52.9021 838.137 51.4343 838.137 49.6238C838.137 47.8134 836.669 46.3456 834.859 46.3456Z" fill="#3E2C3A"/>
<path d="M862.593 158.496C864.869 154.59 866.023 151.05 866.023 147.976C866.023 141.9 861.079 136.956 855.003 136.956C851.004 136.956 847.312 139.136 845.367 142.645C844.789 143.687 843.691 144.334 842.499 144.334C841.307 144.334 840.21 143.688 839.632 142.645C837.687 139.136 833.994 136.956 829.996 136.956C823.92 136.956 818.976 141.9 818.976 147.976C818.976 160.183 836.267 175.075 842.502 180.048C845.403 177.742 850.389 173.539 855.044 168.458C856.253 167.14 858.29 167.038 859.626 168.215C861.066 166.513 862.439 164.736 863.677 162.915C862.192 161.977 861.702 160.027 862.593 158.496Z" fill="#1E74A5"/>
<path d="M855.002 130.4C850.244 130.4 845.758 132.332 842.499 135.635C839.24 132.332 834.755 130.4 829.997 130.4C820.305 130.4 812.42 138.284 812.42 147.976C812.42 164.421 833.936 181.863 840.531 186.817C841.114 187.256 841.806 187.475 842.5 187.475C843.193 187.475 843.886 187.256 844.469 186.817C846.461 185.321 853.457 179.895 859.878 172.888C861.102 171.553 861.011 169.479 859.676 168.256C859.661 168.242 859.643 168.23 859.627 168.216C858.291 167.038 856.253 167.139 855.045 168.459C850.389 173.539 845.404 177.742 842.503 180.048C836.268 175.075 818.977 160.183 818.977 147.977C818.977 141.9 823.92 136.956 829.997 136.956C833.995 136.956 837.687 139.136 839.633 142.646C840.211 143.688 841.308 144.335 842.5 144.335C843.692 144.335 844.79 143.688 845.368 142.646C847.313 139.136 851.005 136.956 855.003 136.956C861.08 136.956 866.023 141.9 866.023 147.977C866.023 151.05 864.87 154.59 862.594 158.497C861.703 160.027 862.193 161.978 863.678 162.915C863.711 162.936 863.742 162.96 863.777 162.98C865.342 163.89 867.349 163.362 868.26 161.797C871.127 156.875 872.58 152.225 872.58 147.977C872.579 138.284 864.694 130.4 855.002 130.4Z" fill="#032F47"/>
<path d="M256.864 23.7241C248.85 25.8248 242.328 31.6378 239.244 39.2061C246.109 35.337 252.133 30.0433 256.864 23.7241Z" fill="#AE8B81"/>
<path d="M270.135 23.7241C274.866 30.0433 280.891 35.3374 287.756 39.2066C284.672 31.6382 278.149 25.8248 270.135 23.7241Z" fill="#AE8B81"/>
<path d="M289.634 47.4903C279.137 42.7779 270.047 35.1965 263.5 25.7324C256.952 35.1969 247.863 42.7779 237.367 47.4907C237.336 48.0087 237.316 48.5297 237.316 49.0555C237.316 63.4938 249.062 75.2399 263.5 75.2399C277.938 75.2399 289.685 63.4933 289.685 49.0555C289.684 48.5293 289.664 48.0087 289.634 47.4903ZM255.86 52.9024H252.639C250.829 52.9024 249.361 51.4347 249.361 49.6242C249.361 47.8137 250.829 46.346 252.639 46.346H255.86C257.67 46.346 259.138 47.8137 259.138 49.6242C259.138 51.4347 257.67 52.9024 255.86 52.9024ZM274.361 52.9024H271.595C269.785 52.9024 268.317 51.4347 268.317 49.6242C268.317 47.8137 269.785 46.346 271.595 46.346H274.361C276.171 46.346 277.639 47.8137 277.639 49.6242C277.639 51.4347 276.171 52.9024 274.361 52.9024Z" fill="#F6E3DE"/>
<path d="M327.442 144.106C327.442 137.722 326.471 131.437 324.632 125.446C322.384 125.784 320.094 125.994 317.772 126.075C317.772 126.107 317.775 126.138 317.775 126.17C317.741 127.98 316.244 129.429 314.436 129.386C303.356 129.18 292.506 126.052 283.06 120.34C275.404 115.712 268.799 109.482 263.727 102.144C258.612 109.545 251.94 115.816 244.201 120.457C234.66 126.179 223.71 129.269 212.535 129.394C212.523 129.394 212.51 129.394 212.498 129.394C210.705 129.394 209.241 127.95 209.221 126.152C209.22 126.12 209.224 126.089 209.225 126.057C206.91 125.958 204.628 125.732 202.389 125.378C200.536 131.391 199.557 137.698 199.557 144.106C199.557 166.434 211.389 187.338 230.496 198.879H296.504C315.61 187.338 327.442 166.433 327.442 144.106ZM289.258 161.796C288.347 163.36 286.34 163.889 284.775 162.978C284.741 162.958 284.71 162.935 284.677 162.914C283.439 164.736 282.065 166.512 280.626 168.215C280.642 168.229 280.659 168.241 280.675 168.255C282.01 169.478 282.1 171.552 280.877 172.887C274.456 179.894 267.459 185.32 265.467 186.816C264.884 187.254 264.191 187.474 263.498 187.474C262.806 187.474 262.113 187.255 261.529 186.816C254.935 181.862 233.419 164.42 233.419 147.975C233.419 138.284 241.303 130.399 250.995 130.399C255.753 130.399 260.239 132.331 263.498 135.634C266.757 132.332 271.242 130.399 276.001 130.399C285.692 130.399 293.577 138.284 293.577 147.975C293.579 152.224 292.125 156.874 289.258 161.796Z" fill="#EDF8FF"/>
<path d="M212.462 122.837C232.404 122.615 250.958 111.708 260.882 94.3721C261.466 93.3519 262.552 92.7225 263.727 92.7225C264.903 92.7225 265.988 93.3519 266.572 94.3716C276.411 111.557 294.799 122.462 314.559 122.83C316.338 122.863 317.755 124.308 317.773 126.074C320.095 125.993 322.385 125.783 324.632 125.445C320.638 112.433 312.544 100.807 301.362 92.576C300.627 92.0353 300.151 91.2123 300.048 90.3062C299.945 89.3996 300.225 88.4909 300.819 87.799C308.477 78.8913 312.694 67.5093 312.694 55.7492C312.693 28.6241 290.625 6.55591 263.5 6.55591C236.374 6.55591 214.306 28.6241 214.306 55.7496C214.306 67.5093 218.523 78.8913 226.181 87.7994C226.776 88.4913 227.055 89.4001 226.952 90.3066C226.849 91.2132 226.373 92.0358 225.638 92.5765C214.476 100.793 206.391 112.394 202.389 125.378C204.628 125.733 206.91 125.958 209.225 126.056C209.255 124.29 210.684 122.856 212.462 122.837ZM263.499 16.3133C280.035 16.3133 293.738 28.6368 295.927 44.58C295.96 44.7369 295.978 44.8969 295.988 45.0582C296.148 46.369 296.24 47.7004 296.24 49.0541C296.24 67.1076 281.553 81.795 263.5 81.795C245.447 81.795 230.759 67.1072 230.759 49.0541C230.759 47.7009 230.851 46.369 231.011 45.0582C231.021 44.8969 231.039 44.7365 231.072 44.5795C233.262 28.6368 246.964 16.3133 263.499 16.3133Z" fill="#82CCF6"/>
<path d="M326.159 111.77C321.721 103.188 315.466 95.5112 307.955 89.3931C315.261 79.7429 319.25 67.9251 319.25 55.7501C319.25 25.0094 294.24 0 263.5 0C232.759 0 207.749 25.0094 207.749 55.7501C207.749 67.9251 211.738 79.7429 219.044 89.3931C211.533 95.5112 205.278 103.188 200.84 111.77C195.711 121.686 193 132.868 193 144.106C193 156.638 196.332 168.946 202.635 179.7C208.75 190.133 217.5 198.878 227.939 204.987C228.441 205.281 229.013 205.436 229.595 205.436H297.405C297.987 205.436 298.558 205.281 299.061 204.987C309.499 198.878 318.25 190.133 324.365 179.7C330.668 168.946 334 156.638 334 144.106C333.999 132.868 331.288 121.686 326.159 111.77ZM230.496 198.88C211.389 187.339 199.556 166.433 199.556 144.106C199.556 137.699 200.536 131.391 202.389 125.379C206.39 112.394 214.475 100.794 225.638 92.577C226.372 92.0363 226.849 91.2132 226.952 90.3071C227.054 89.4006 226.775 88.4918 226.18 87.7999C218.523 78.8923 214.305 67.5103 214.305 55.7501C214.306 28.6247 236.374 6.55647 263.5 6.55647C290.625 6.55647 312.693 28.6247 312.693 55.7501C312.693 67.5098 308.476 78.8919 300.819 87.7999C300.224 88.4918 299.944 89.4006 300.047 90.3071C300.15 91.2137 300.626 92.0363 301.361 92.577C312.543 100.808 320.637 112.434 324.632 125.446C326.471 131.438 327.442 137.723 327.442 144.106C327.442 166.434 315.61 187.339 296.503 198.88H230.496Z" fill="#032F47"/>
<path d="M230.758 49.0548C230.758 67.1082 245.446 81.7956 263.499 81.7956C281.552 81.7956 296.24 67.1078 296.24 49.0548C296.24 47.7015 296.148 46.3697 295.987 45.0588C295.977 44.8975 295.959 44.7376 295.926 44.5806C293.737 28.6375 280.034 16.314 263.499 16.314C246.963 16.314 233.261 28.6375 231.071 44.5806C231.038 44.7376 231.02 44.898 231.011 45.0593C230.85 46.3697 230.758 47.7015 230.758 49.0548ZM263.499 75.2391C249.061 75.2391 237.315 63.4926 237.315 49.0548C237.315 48.529 237.335 48.0084 237.365 47.49C247.861 42.7772 256.951 35.1962 263.499 25.7321C270.046 35.1966 279.136 42.7776 289.633 47.4904C289.663 48.0084 289.683 48.5294 289.683 49.0552C289.683 63.493 277.937 75.2391 263.499 75.2391ZM270.133 23.7241C278.147 25.8248 284.67 31.6382 287.754 39.2065C280.889 35.3373 274.864 30.0432 270.133 23.7241ZM256.864 23.7241C252.133 30.0428 246.108 35.3365 239.243 39.2061C242.328 31.6382 248.85 25.8252 256.864 23.7241Z" fill="#032F47"/>
<path d="M314.558 122.831C294.798 122.463 276.411 111.558 266.572 94.3724C265.988 93.3527 264.902 92.7233 263.727 92.7233C262.551 92.7233 261.465 93.3527 260.881 94.3729C250.957 111.709 232.403 122.616 212.461 122.838C210.683 122.857 209.255 124.29 209.224 126.057C209.223 126.089 209.22 126.12 209.22 126.152C209.24 127.95 210.704 129.394 212.497 129.394C212.51 129.394 212.522 129.394 212.534 129.394C223.709 129.27 234.659 126.18 244.2 120.458C251.939 115.816 258.611 109.546 263.727 102.144C268.799 109.483 275.403 115.712 283.059 120.341C292.506 126.052 303.355 129.18 314.436 129.387C316.243 129.43 317.74 127.98 317.774 126.17C317.775 126.138 317.772 126.107 317.771 126.076C317.754 124.308 316.337 122.864 314.558 122.831Z" fill="#032F47"/>
<path d="M274.359 46.3456H271.594C269.783 46.3456 268.315 47.8134 268.315 49.6238C268.315 51.4343 269.783 52.9021 271.594 52.9021H274.359C276.17 52.9021 277.637 51.4343 277.637 49.6238C277.637 47.8134 276.17 46.3456 274.359 46.3456Z" fill="#3E2C3A"/>
<path d="M255.859 46.3456H252.638C250.828 46.3456 249.36 47.8134 249.36 49.6238C249.36 51.4343 250.828 52.9021 252.638 52.9021H255.859C257.669 52.9021 259.137 51.4343 259.137 49.6238C259.137 47.8134 257.669 46.3456 255.859 46.3456Z" fill="#3E2C3A"/>
<path d="M283.593 158.496C285.869 154.59 287.023 151.05 287.023 147.976C287.023 141.9 282.079 136.956 276.003 136.956C272.004 136.956 268.312 139.136 266.367 142.645C265.789 143.687 264.691 144.334 263.499 144.334C262.307 144.334 261.21 143.688 260.632 142.645C258.687 139.136 254.994 136.956 250.996 136.956C244.92 136.956 239.976 141.9 239.976 147.976C239.976 160.183 257.267 175.075 263.502 180.048C266.403 177.742 271.389 173.539 276.044 168.458C277.253 167.14 279.29 167.038 280.626 168.215C282.066 166.513 283.439 164.736 284.677 162.915C283.192 161.977 282.702 160.027 283.593 158.496Z" fill="#1E74A5"/>
<path d="M276.002 130.4C271.244 130.4 266.758 132.332 263.499 135.635C260.24 132.332 255.755 130.4 250.997 130.4C241.305 130.4 233.42 138.284 233.42 147.976C233.42 164.421 254.936 181.863 261.531 186.817C262.114 187.256 262.806 187.475 263.5 187.475C264.193 187.475 264.886 187.256 265.469 186.817C267.461 185.321 274.457 179.895 280.878 172.888C282.102 171.553 282.011 169.479 280.676 168.256C280.661 168.242 280.643 168.23 280.627 168.216C279.291 167.038 277.253 167.139 276.045 168.459C271.389 173.539 266.404 177.742 263.503 180.048C257.268 175.075 239.977 160.183 239.977 147.977C239.977 141.9 244.92 136.956 250.997 136.956C254.995 136.956 258.687 139.136 260.633 142.646C261.211 143.688 262.308 144.335 263.5 144.335C264.692 144.335 265.79 143.688 266.368 142.646C268.313 139.136 272.005 136.956 276.003 136.956C282.08 136.956 287.023 141.9 287.023 147.977C287.023 151.05 285.87 154.59 283.594 158.497C282.703 160.027 283.193 161.978 284.678 162.915C284.711 162.936 284.742 162.96 284.777 162.98C286.342 163.89 288.349 163.362 289.26 161.797C292.127 156.875 293.58 152.225 293.58 147.977C293.579 138.284 285.694 130.4 276.002 130.4Z" fill="#032F47"/>
</svg>
