<svg width="94" height="89" viewBox="0 0 94 89" fill="none" xmlns="http://www.w3.org/2000/svg">
<path d="M61.8482 23.8L55.282 8.36204C52.1757 1.05881 41.8243 1.05883 38.718 8.36205L32.1518 23.8C31.4182 25.5248 29.7816 26.6944 27.9123 26.83L11.13 28.0469C3.01318 28.6355 -0.216381 38.8384 6.08339 43.9903L18.5341 54.1723C20.0361 55.4007 20.6919 57.3871 20.2163 59.2683L16.283 74.8278C14.3186 82.5987 22.727 88.8674 29.6136 84.7662L44.4416 75.9354C46.018 74.9966 47.982 74.9966 49.5584 75.9354L64.3864 84.7662C71.273 88.8674 79.6814 82.5987 77.717 74.8278L73.7837 59.2683C73.3081 57.3871 73.9639 55.4007 75.4659 54.1723L87.9166 43.9903C94.2164 38.8384 90.9868 28.6355 82.87 28.0469L66.0877 26.83C64.2184 26.6944 62.5818 25.5248 61.8482 23.8Z" fill="#FFD02A" stroke="#BC8A3E" stroke-width="4"/>
</svg>
