<svg width="58" height="49" viewBox="0 0 58 49" fill="none" xmlns="http://www.w3.org/2000/svg">
<path d="M48.7043 22.7209C48.4143 17.9707 46.7221 13.4131 43.8418 9.62454C40.9615 5.83598 37.0225 2.98661 32.5228 1.43674C28.0231 -0.113122 23.1649 -0.293875 18.5625 0.917344C13.9601 2.12856 9.82022 4.67735 6.66638 8.2414C3.51253 11.8055 1.48638 16.2247 0.844138 20.9403C0.201895 25.6558 0.972406 30.456 3.05824 34.7337C5.14407 39.0113 8.45153 42.5744 12.5624 44.9723C16.6732 47.3703 21.4028 48.4953 26.1531 48.2053L25.6137 39.3715C22.6106 39.5549 19.6206 38.8436 17.0217 37.3276C14.4228 35.8117 12.3318 33.5591 11.0132 30.8548C9.69453 28.1504 9.20741 25.1158 9.61344 22.1346C10.0195 19.1534 11.3004 16.3596 13.2942 14.1064C15.2881 11.8532 17.9053 10.2419 20.8149 9.47617C23.7246 8.71044 26.7959 8.82471 29.6406 9.80454C32.4853 10.7844 34.9755 12.5857 36.7964 14.9808C38.6174 17.3759 39.6871 20.2572 39.8705 23.2603L48.7043 22.7209Z" fill="#6B0000"/>
<path d="M44.5538 35.1265L31.249 21.1265H57.499L44.5538 35.1265Z" fill="#6B0000"/>
</svg>
