<svg width="57" height="92" viewBox="0 0 57 92" fill="none" xmlns="http://www.w3.org/2000/svg">
<path d="M0 6.21827C0 2.9148 2.67033 0.232771 5.97377 0.21833L49.8723 0.0264258C53.1962 0.0118951 55.8985 2.70241 55.8985 6.02637V22.9445C55.8985 26.2337 53.2503 28.9098 49.9612 28.9441L32.4928 29.1265V32.4618H49.8986C53.2123 32.4618 55.8985 35.1481 55.8985 38.4618V53.7227C55.8985 57.0364 53.2123 59.7227 49.8985 59.7227H32.4928V63.4977L51 63.4977C54.3137 63.4977 57 66.184 57 69.4977V85.9402C57 89.2539 54.3137 91.9402 51 91.9402L6 91.9401C2.68629 91.9401 0 89.2538 0 85.9401V6.21827Z" fill="#2F0F57"/>
<path d="M2.75297 6.54891C2.75297 4.89205 4.09612 3.54891 5.75297 3.54891H50.0489C51.7058 3.54891 53.0489 4.89205 53.0489 6.54891V22.9453C53.0489 24.6022 51.7058 25.9453 50.0489 25.9453H33.0126C31.3557 25.9453 30.0126 27.2885 30.0126 28.9453V32.4158C30.0126 34.0727 31.3557 35.4158 33.0126 35.4158H49.665C51.3218 35.4158 52.665 36.7589 52.665 38.4158V53.6604C52.665 55.3172 51.3218 56.6604 49.665 56.6604H33.0126C31.3557 56.6604 30.0126 58.0035 30.0126 59.6604V63.5148C30.0126 65.1717 31.3557 66.5148 33.0126 66.5148H50.9448C52.6016 66.5148 53.9448 67.858 53.9448 69.5148V85.9112C53.9448 87.5681 52.6016 88.9112 50.9448 88.9112H5.75297C4.09612 88.9112 2.75297 87.5681 2.75297 85.9112V6.54891ZM42.9385 78.6729C43.7867 78.6729 44.4743 77.9853 44.4743 77.1371C44.4743 76.2889 43.7867 75.6013 42.9385 75.6013H21.8784C20.2215 75.6013 18.8784 74.2582 18.8784 72.6013V50.5738C18.8784 48.917 20.2215 47.5738 21.8784 47.5738H41.6587C42.5069 47.5738 43.1945 46.8863 43.1945 46.0381C43.1945 45.1899 42.5069 44.5023 41.6587 44.5023H21.8784C20.2215 44.5023 18.8784 43.1592 18.8784 41.5023V19.8588C18.8784 18.2019 20.2215 16.8588 21.8784 16.8588H42.9385C43.7867 16.8588 44.4743 16.1712 44.4743 15.323C44.4743 14.4748 43.7867 13.7873 42.9385 13.7873H18.5509C16.8941 13.7873 15.5509 15.1304 15.5509 16.7873V75.6729C15.5509 77.3297 16.8941 78.6729 18.5509 78.6729H42.9385Z" fill="url(#paint0_linear_511_56)"/>
<defs>
<linearGradient id="paint0_linear_511_56" x1="28.5" y1="0.0263672" x2="28.5" y2="91.9402" gradientUnits="userSpaceOnUse">
<stop stop-color="#F80CFD"/>
<stop offset="0.411458" stop-color="#FE689A"/>
<stop offset="0.703125" stop-color="#FEE6FF"/>
<stop offset="0.84375" stop-color="#FEE6FF"/>
<stop offset="0.963542" stop-color="#FEE6FF"/>
</linearGradient>
</defs>
</svg>
