<svg width="57" height="92" viewBox="0 0 57 92" fill="none" xmlns="http://www.w3.org/2000/svg">
<path d="M0 6.1919C0 2.88843 2.67033 0.206403 5.97377 0.191962L49.8723 5.85805e-05C53.1962 -0.0144721 55.8985 2.67605 55.8985 6V22.9181C55.8985 26.2074 53.2503 28.8834 49.9612 28.9178L32.4928 29.1001V32.4355H49.8986C53.2123 32.4355 55.8985 35.1217 55.8985 38.4355V53.6963C55.8985 57.01 53.2123 59.6963 49.8985 59.6963H32.4928V63.4713L51 63.4713C54.3137 63.4713 57 66.1576 57 69.4713V85.9138C57 89.2275 54.3137 91.9138 51 91.9138L6 91.9138C2.68629 91.9138 0 89.2275 0 85.9138V6.1919Z" fill="#2F0F57"/>
<path d="M2.75297 6.52254C2.75297 4.86569 4.09612 3.52254 5.75297 3.52254H50.0489C51.7058 3.52254 53.0489 4.86568 53.0489 6.52254V22.919C53.0489 24.5758 51.7058 25.919 50.0489 25.919H33.0126C31.3557 25.919 30.0126 27.2621 30.0126 28.919V32.3894C30.0126 34.0463 31.3557 35.3894 33.0126 35.3894H49.665C51.3218 35.3894 52.665 36.7326 52.665 38.3894V53.634C52.665 55.2909 51.3218 56.634 49.665 56.634H33.0126C31.3557 56.634 30.0126 57.9772 30.0126 59.634V63.4884C30.0126 65.1453 31.3557 66.4884 33.0126 66.4884H50.9448C52.6016 66.4884 53.9448 67.8316 53.9448 69.4884V85.8849C53.9448 87.5417 52.6016 88.8848 50.9448 88.8848H5.75297C4.09612 88.8848 2.75297 87.5417 2.75297 85.8848V6.52254ZM42.9385 78.6465C43.7867 78.6465 44.4743 77.9589 44.4743 77.1107C44.4743 76.2626 43.7867 75.575 42.9385 75.575H21.8784C20.2215 75.575 18.8784 74.2318 18.8784 72.575V50.5475C18.8784 48.8906 20.2215 47.5475 21.8784 47.5475H41.6587C42.5069 47.5475 43.1945 46.8599 43.1945 46.0117C43.1945 45.1636 42.5069 44.476 41.6587 44.476H21.8784C20.2215 44.476 18.8784 43.1328 18.8784 41.476V19.8324C18.8784 18.1756 20.2215 16.8324 21.8784 16.8324H42.9385C43.7867 16.8324 44.4743 16.1448 44.4743 15.2967C44.4743 14.4485 43.7867 13.7609 42.9385 13.7609H18.5509C16.8941 13.7609 15.5509 15.104 15.5509 16.7609V75.6465C15.5509 77.3034 16.8941 78.6465 18.5509 78.6465H42.9385Z" fill="url(#paint0_linear_511_56)"/>
<defs>
<linearGradient id="paint0_linear_511_56" x1="28.5" y1="0" x2="28.5" y2="91.9138" gradientUnits="userSpaceOnUse">
<stop stop-color="#620E64"/>
<stop offset="0.411458" stop-color="#DD26DD"/>
<stop offset="0.703125" stop-color="#FEE6FF"/>
<stop offset="0.84375" stop-color="#FEE6FF"/>
<stop offset="0.963542" stop-color="#FEE6FF"/>
</linearGradient>
</defs>
</svg>
