<svg width="20" height="19" viewBox="0 0 20 19" fill="none" xmlns="http://www.w3.org/2000/svg">
<path d="M9.66983 1.00349C13.15 1.20676 13.2493 4.76686 12.8282 6.23034C17.0394 4.89214 18.6537 6.78794 18.9345 7.90313C19.4398 10.5793 16.899 11.3877 15.5655 11.4574C18.2606 14.8026 16.9692 16.4752 15.9866 16.8934C12.9546 17.7297 11.214 15.5692 10.7226 14.3845C9.37503 17.2279 7.07292 17.3812 6.09035 17.1024C3.22672 16.2661 4.47602 13.2694 5.45864 11.8755C1.41592 11.2065 0.826354 9.2273 1.03691 8.32131C1.7107 4.97611 5.24809 5.53352 6.93257 6.23034C6.25879 1.8816 8.47665 0.933798 9.66983 1.00349Z" fill="#FFD5F2"/>
<path d="M10.25 9.89999L8.44999 12.15Z" fill="#FFD5F2"/>
<path d="M7.54999 9.44999L10.25 9.89999Z" fill="#FFD5F2"/>
<path d="M9.79999 6.74999L10.25 9.89999Z" fill="#FFD5F2"/>
<path d="M12.95 8.99999L10.25 9.89999Z" fill="#FFD5F2"/>
<path d="M10.25 9.89999L12.5 11.7Z" fill="#FFD5F2"/>
<path d="M10.25 9.89999L8.44999 12.15M10.25 9.89999L7.54999 9.44999M10.25 9.89999L9.79999 6.74999M10.25 9.89999L12.95 8.99999M10.25 9.89999L12.5 11.7M9.66983 1.00349C13.15 1.20676 13.2493 4.76686 12.8282 6.23034C17.0394 4.89214 18.6537 6.78794 18.9345 7.90313C19.4398 10.5793 16.899 11.3877 15.5655 11.4574C18.2606 14.8026 16.9692 16.4752 15.9866 16.8934C12.9546 17.7297 11.214 15.5692 10.7226 14.3845C9.37503 17.2279 7.07292 17.3812 6.09035 17.1024C3.22672 16.2661 4.47602 13.2694 5.45864 11.8755C1.41592 11.2065 0.826354 9.2273 1.03691 8.32131C1.7107 4.97611 5.24809 5.53352 6.93257 6.23034C6.25879 1.8816 8.47665 0.933798 9.66983 1.00349Z" stroke="#7D3968" stroke-opacity="0.96" stroke-width="2" stroke-linecap="round" stroke-linejoin="round"/>
</svg>
