<svg width="66" height="92" viewBox="0 0 66 92" fill="none" xmlns="http://www.w3.org/2000/svg">
<path d="M20.3291 30.5696C20.3291 28.9128 18.986 27.5696 17.3291 27.5696H3C1.34315 27.5696 0 26.2265 0 24.5696V3C0 1.34315 1.34315 0 3 0H63C64.6569 0 66 1.34315 66 3V24.5696C66 26.2265 64.6569 27.5696 63 27.5696H48.6709C47.014 27.5696 45.6709 28.9128 45.6709 30.5696V88.0633C45.6709 89.7202 44.3277 91.0634 42.6709 91.0634H23.3291C21.6723 91.0634 20.3291 89.7202 20.3291 88.0634V30.5696Z" fill="#2F0F57"/>
<path d="M23.2681 28.1563C23.2681 26.4995 21.9249 25.1563 20.2681 25.1563H5.78289C4.12603 25.1563 2.78289 23.8132 2.78289 22.1563V5.50624C2.78289 3.84938 4.12603 2.50623 5.78289 2.50623H60.0968C61.7537 2.50623 63.0968 3.84938 63.0968 5.50623V22.1563C63.0968 23.8132 61.7537 25.1563 60.0968 25.1563H45.3565C43.6996 25.1563 42.3565 26.4995 42.3565 28.1563V85.8355C42.3565 87.4923 41.0134 88.8355 39.3565 88.8355H26.2681C24.6112 88.8355 23.2681 87.4923 23.2681 85.8355V28.1563ZM32.9398 78.4811C33.8691 78.4811 34.6224 77.7278 34.6224 76.7986V18.9669C34.6224 17.31 35.9656 15.9669 37.6224 15.9669H51.5776C52.4354 15.9669 53.1308 15.2715 53.1308 14.4137C53.1308 13.5559 52.4354 12.8606 51.5776 12.8606H14.3021C13.4443 12.8606 12.7489 13.5559 12.7489 14.4137C12.7489 15.2715 13.4443 15.9669 14.3021 15.9669H28.2573C29.9141 15.9669 31.2573 17.31 31.2573 18.9669V76.7986C31.2573 77.7278 32.0106 78.4811 32.9398 78.4811Z" fill="url(#paint0_linear_511_55)"/>
<defs>
<linearGradient id="paint0_linear_511_55" x1="33" y1="0" x2="33" y2="91.0634" gradientUnits="userSpaceOnUse">
<stop stop-color="#620E64"/>
<stop offset="0.411458" stop-color="#DD26DD"/>
<stop offset="0.703125" stop-color="#FEE6FF"/>
<stop offset="0.84375" stop-color="#FEE6FF"/>
<stop offset="0.963542" stop-color="#FEE6FF"/>
</linearGradient>
</defs>
</svg>
